<svg width="112" height="118" viewBox="0 0 112 118" fill="none" xmlns="http://www.w3.org/2000/svg">
<path d="M10.6922 4.03L14.9922 3.8V14.7C14.9922 15.98 14.6455 17.0367 13.9522 17.87C13.2655 18.7033 12.2689 19.1367 10.9622 19.17C9.84219 19.17 8.85219 18.73 7.99219 17.85L8.91219 16.67C8.97885 16.7367 9.07552 16.8167 9.20219 16.91C9.33552 16.9967 9.48885 17.08 9.66219 17.16C9.83552 17.24 10.0222 17.3067 10.2222 17.36C10.4289 17.4133 10.6422 17.44 10.8622 17.44C11.5555 17.44 12.0655 17.18 12.3922 16.66C12.7255 16.14 12.8922 15.3533 12.8922 14.3V7.52L13.0922 5.62L10.8922 5.75L10.6922 4.03ZM26.1961 19H24.0961V17.38L23.1561 18.5C23.0428 18.5867 22.9128 18.67 22.7661 18.75C22.6194 18.83 22.4694 18.9033 22.3161 18.97C22.1694 19.03 22.0194 19.0767 21.8661 19.11C21.7194 19.15 21.5828 19.17 21.4561 19.17C20.9561 19.17 20.4761 19.0933 20.0161 18.94C19.5628 18.78 19.1628 18.55 18.8161 18.25C18.4761 17.9433 18.2028 17.5667 17.9961 17.12C17.7961 16.6667 17.6961 16.1467 17.6961 15.56C17.6961 14.94 17.8194 14.4033 18.0661 13.95C18.3194 13.49 18.6394 13.11 19.0261 12.81C19.4194 12.5033 19.8561 12.2767 20.3361 12.13C20.8161 11.9767 21.2861 11.9 21.7461 11.9C22.1261 11.9 22.4594 11.92 22.7461 11.96C23.0394 12 23.2861 12.0467 23.4861 12.1C23.7194 12.16 23.9228 12.2267 24.0961 12.3V11.95C24.0961 11.5567 24.0728 11.2033 24.0261 10.89C23.9794 10.5767 23.8828 10.3133 23.7361 10.1C23.5961 9.88 23.3894 9.71333 23.1161 9.6C22.8494 9.48667 22.4928 9.43 22.0461 9.43C21.6861 9.43 21.3394 9.45667 21.0061 9.51C20.6728 9.55667 20.3761 9.61 20.1161 9.67C19.8094 9.74333 19.5261 9.82 19.2661 9.9L18.5461 8.56C18.8394 8.42667 19.1728 8.30667 19.5461 8.2C19.8661 8.10667 20.2461 8.02333 20.6861 7.95C21.1261 7.87 21.6128 7.83 22.1461 7.83C22.9128 7.83 23.5461 7.93333 24.0461 8.14C24.5461 8.34667 24.9394 8.63667 25.2261 9.01C25.5128 9.38333 25.7128 9.83333 25.8261 10.36C25.9394 10.88 25.9961 11.46 25.9961 12.1V17.2L26.1961 19ZM24.0961 13.67C23.9094 13.6433 23.7094 13.6167 23.4961 13.59C23.3161 13.57 23.1094 13.55 22.8761 13.53C22.6428 13.51 22.3994 13.5 22.1461 13.5C21.7728 13.5 21.4294 13.5367 21.1161 13.61C20.8094 13.6833 20.5428 13.8033 20.3161 13.97C20.0894 14.13 19.9128 14.34 19.7861 14.6C19.6594 14.86 19.5961 15.1767 19.5961 15.55C19.5961 15.85 19.6461 16.1233 19.7461 16.37C19.8461 16.6167 19.9828 16.83 20.1561 17.01C20.3294 17.19 20.5328 17.33 20.7661 17.43C21.0061 17.5233 21.2628 17.57 21.5361 17.57C21.6628 17.57 21.7961 17.5533 21.9361 17.52C22.0828 17.48 22.2261 17.43 22.3661 17.37C22.5128 17.31 22.6561 17.24 22.7961 17.16C22.9428 17.08 23.0794 17 23.2061 16.92C23.5061 16.7267 23.8028 16.5067 24.0961 16.26V13.67ZM37.5539 7.8L33.8439 19.2L31.7839 19L28.2139 8L30.0439 7.8L32.4339 15.19L32.9639 17.51L33.4639 15.19L35.8039 8L37.5539 7.8ZM47.7 19H45.6V17.38L44.66 18.5C44.5467 18.5867 44.4167 18.67 44.27 18.75C44.1233 18.83 43.9733 18.9033 43.82 18.97C43.6733 19.03 43.5233 19.0767 43.37 19.11C43.2233 19.15 43.0867 19.17 42.96 19.17C42.46 19.17 41.98 19.0933 41.52 18.94C41.0667 18.78 40.6667 18.55 40.32 18.25C39.98 17.9433 39.7067 17.5667 39.5 17.12C39.3 16.6667 39.2 16.1467 39.2 15.56C39.2 14.94 39.3233 14.4033 39.57 13.95C39.8233 13.49 40.1433 13.11 40.53 12.81C40.9233 12.5033 41.36 12.2767 41.84 12.13C42.32 11.9767 42.79 11.9 43.25 11.9C43.63 11.9 43.9633 11.92 44.25 11.96C44.5433 12 44.79 12.0467 44.99 12.1C45.2233 12.16 45.4267 12.2267 45.6 12.3V11.95C45.6 11.5567 45.5767 11.2033 45.53 10.89C45.4833 10.5767 45.3867 10.3133 45.24 10.1C45.1 9.88 44.8933 9.71333 44.62 9.6C44.3533 9.48667 43.9967 9.43 43.55 9.43C43.19 9.43 42.8433 9.45667 42.51 9.51C42.1767 9.55667 41.88 9.61 41.62 9.67C41.3133 9.74333 41.03 9.82 40.77 9.9L40.05 8.56C40.3433 8.42667 40.6767 8.30667 41.05 8.2C41.37 8.10667 41.75 8.02333 42.19 7.95C42.63 7.87 43.1167 7.83 43.65 7.83C44.4167 7.83 45.05 7.93333 45.55 8.14C46.05 8.34667 46.4433 8.63667 46.73 9.01C47.0167 9.38333 47.2167 9.83333 47.33 10.36C47.4433 10.88 47.5 11.46 47.5 12.1V17.2L47.7 19ZM45.6 13.67C45.4133 13.6433 45.2133 13.6167 45 13.59C44.82 13.57 44.6133 13.55 44.38 13.53C44.1467 13.51 43.9033 13.5 43.65 13.5C43.2767 13.5 42.9333 13.5367 42.62 13.61C42.3133 13.6833 42.0467 13.8033 41.82 13.97C41.5933 14.13 41.4167 14.34 41.29 14.6C41.1633 14.86 41.1 15.1767 41.1 15.55C41.1 15.85 41.15 16.1233 41.25 16.37C41.35 16.6167 41.4867 16.83 41.66 17.01C41.8333 17.19 42.0367 17.33 42.27 17.43C42.51 17.5233 42.7667 17.57 43.04 17.57C43.1667 17.57 43.3 17.5533 43.44 17.52C43.5867 17.48 43.73 17.43 43.87 17.37C44.0167 17.31 44.16 17.24 44.3 17.16C44.4467 17.08 44.5833 17 44.71 16.92C45.01 16.7267 45.3067 16.5067 45.6 16.26V13.67ZM57.7078 6.26C57.2545 5.99333 56.8178 5.79667 56.3978 5.67C55.9845 5.54333 55.5211 5.48 55.0078 5.48C54.6478 5.48 54.2945 5.51667 53.9478 5.59C53.6078 5.66333 53.3045 5.78333 53.0378 5.95C52.7778 6.11 52.5645 6.32333 52.3978 6.59C52.2378 6.85 52.1578 7.17 52.1578 7.55C52.1578 7.92333 52.2578 8.24667 52.4578 8.52C52.6578 8.79333 52.9178 9.04 53.2378 9.26C53.5645 9.47333 53.9345 9.67333 54.3478 9.86C54.7678 10.04 55.1945 10.2333 55.6278 10.44C56.0611 10.64 56.4845 10.8633 56.8978 11.11C57.3178 11.35 57.6878 11.6367 58.0078 11.97C58.3345 12.2967 58.5978 12.68 58.7978 13.12C58.9978 13.56 59.0978 14.08 59.0978 14.68C59.0978 15.1733 59.0311 15.63 58.8978 16.05C58.7645 16.4633 58.5778 16.8367 58.3378 17.17C58.1045 17.5033 57.8245 17.7967 57.4978 18.05C57.1711 18.2967 56.8145 18.5033 56.4278 18.67C56.0411 18.8367 55.6311 18.96 55.1978 19.04C54.7711 19.1267 54.3345 19.17 53.8878 19.17C52.3345 19.1433 50.9811 18.7733 49.8278 18.06L50.7378 16.56C50.8711 16.6467 51.0445 16.7467 51.2578 16.86C51.4778 16.9667 51.7211 17.07 51.9878 17.17C52.2545 17.27 52.5378 17.3533 52.8378 17.42C53.1378 17.4867 53.4411 17.52 53.7478 17.52C54.1611 17.52 54.5645 17.47 54.9578 17.37C55.3578 17.2633 55.7111 17.1033 56.0178 16.89C56.3311 16.67 56.5811 16.3933 56.7678 16.06C56.9611 15.7267 57.0578 15.33 57.0578 14.87C57.0578 14.4367 56.9578 14.06 56.7578 13.74C56.5578 13.4133 56.2945 13.1233 55.9678 12.87C55.6478 12.61 55.2778 12.3767 54.8578 12.17C54.4445 11.9633 54.0211 11.7567 53.5878 11.55C53.1545 11.3433 52.7278 11.1267 52.3078 10.9C51.8945 10.6733 51.5245 10.4167 51.1978 10.13C50.8778 9.84333 50.6178 9.51667 50.4178 9.15C50.2178 8.77667 50.1178 8.34 50.1178 7.84C50.1178 7.19333 50.2511 6.62333 50.5178 6.13C50.7845 5.63 51.1345 5.21 51.5678 4.87C52.0078 4.53 52.5045 4.27333 53.0578 4.1C53.6111 3.92 54.1745 3.83 54.7478 3.83C56.1678 3.83 57.4778 4.23 58.6778 5.03L57.7078 6.26ZM68.0739 10.22C67.8139 9.98667 67.5039 9.79667 67.1439 9.65C66.7906 9.50333 66.4239 9.43 66.0439 9.43C65.4839 9.43 65.0072 9.53667 64.6139 9.75C64.2206 9.95667 63.9006 10.24 63.6539 10.6C63.4139 10.96 63.2372 11.38 63.1239 11.86C63.0106 12.3333 62.9539 12.8333 62.9539 13.36C62.9539 13.9067 63.0039 14.43 63.1039 14.93C63.2106 15.4233 63.3872 15.86 63.6339 16.24C63.8806 16.62 64.2072 16.9233 64.6139 17.15C65.0272 17.37 65.5406 17.48 66.1539 17.48C66.6672 17.48 67.1006 17.42 67.4539 17.3C67.8139 17.18 68.0906 17.0533 68.2839 16.92L69.0039 18.33C68.6306 18.5833 68.1939 18.7867 67.6939 18.94C67.2006 19.0933 66.6406 19.17 66.0139 19.17C65.1806 19.17 64.4506 19.0067 63.8239 18.68C63.1972 18.3467 62.6739 17.9067 62.2539 17.36C61.8406 16.8067 61.5272 16.1733 61.3139 15.46C61.1072 14.74 61.0039 13.9967 61.0039 13.23C61.0039 12.5367 61.1039 11.8667 61.3039 11.22C61.5106 10.5667 61.8206 9.99 62.2339 9.49C62.6539 8.99 63.1806 8.59 63.8139 8.29C64.4539 7.98333 65.2039 7.83 66.0639 7.83C66.6772 7.83 67.2239 7.92667 67.7039 8.12C68.1906 8.30667 68.6439 8.63 69.0639 9.09L68.0739 10.22ZM76.7139 9.52C76.4472 9.52 76.1839 9.57333 75.9239 9.68C75.6639 9.78667 75.4139 9.93 75.1739 10.11C74.9339 10.29 74.7072 10.5 74.4939 10.74C74.2806 10.98 74.0839 11.2333 73.9039 11.5V19H72.0039V8L73.9039 7.8V10.05L74.9039 8.3C74.9906 8.24667 75.0972 8.19333 75.2239 8.14C75.3572 8.08 75.5072 8.03 75.6739 7.99C75.8406 7.94333 76.0172 7.90667 76.2039 7.88C76.3972 7.84667 76.5939 7.83 76.7939 7.83C77.0939 7.83 77.3439 7.85667 77.5439 7.91C77.7506 7.96333 77.9039 8.01333 78.0039 8.06L77.9039 9.72C77.8039 9.68667 77.6539 9.64667 77.4539 9.6C77.2539 9.54667 77.0072 9.52 76.7139 9.52ZM81.9117 19H80.0117V8.45L81.9117 8.25V19ZM79.9517 4H81.9717V6H79.9517V4ZM87.9078 17.4H89.5478C90.1611 17.4 90.6911 17.3 91.1378 17.1C91.5911 16.8933 91.9611 16.6067 92.2478 16.24C92.5411 15.8733 92.7578 15.4333 92.8978 14.92C93.0378 14.4067 93.1078 13.84 93.1078 13.22C93.1078 12.5667 93.0445 12.0033 92.9178 11.53C92.7911 11.05 92.6178 10.6567 92.3978 10.35C92.1778 10.0367 91.9211 9.80667 91.6278 9.66C91.3411 9.50667 91.0345 9.43 90.7078 9.43C90.3811 9.43 90.0745 9.47333 89.7878 9.56C89.5078 9.64 89.2478 9.74333 89.0078 9.87C88.7745 9.99667 88.5645 10.1367 88.3778 10.29C88.1911 10.4433 88.0345 10.59 87.9078 10.73V17.4ZM86.0078 24V8L87.9078 7.8V9.56L88.8578 8.29C89.0511 8.17667 89.3245 8.07333 89.6778 7.98C90.0378 7.88 90.4778 7.83 90.9978 7.83C91.5511 7.83 92.0711 7.96 92.5578 8.22C93.0445 8.48 93.4678 8.85 93.8278 9.33C94.1945 9.81 94.4811 10.39 94.6878 11.07C94.9011 11.75 95.0078 12.51 95.0078 13.35C95.0078 14.17 94.8745 14.9267 94.6078 15.62C94.3411 16.3067 93.9611 16.9033 93.4678 17.41C92.9811 17.91 92.3878 18.3 91.6878 18.58C90.9945 18.86 90.2178 19 89.3578 19H87.9078V24H86.0078ZM99.9 15.24C99.9 15.68 99.9233 16.05 99.97 16.35C100.023 16.6433 100.097 16.8833 100.19 17.07C100.29 17.25 100.41 17.38 100.55 17.46C100.697 17.5333 100.863 17.57 101.05 17.57C101.197 17.57 101.33 17.5633 101.45 17.55C101.57 17.53 101.673 17.5067 101.76 17.48C101.86 17.4533 101.95 17.4233 102.03 17.39L102.72 18.6C102.667 18.6533 102.58 18.7133 102.46 18.78C102.347 18.84 102.21 18.9 102.05 18.96C101.89 19.02 101.707 19.07 101.5 19.11C101.3 19.15 101.083 19.17 100.85 19.17C100.25 19.17 99.7633 19.06 99.39 18.84C99.0167 18.62 98.7267 18.32 98.52 17.94C98.3133 17.56 98.1733 17.12 98.1 16.62C98.0333 16.1133 98 15.5733 98 15V9.6H96.5V8H98V5.91L99.85 4.8V8H103.25L103.05 9.6H99.9V15.24Z" fill="#161524"/>
<g clip-path="url(#clip0_1_56)">
<path d="M9 34.8162V117.711H101.971V34.8162H9ZM58.8061 99.2079C58.8061 107.277 53.4602 111.211 45.7216 111.211C38.7321 111.211 34.675 107.984 32.6164 104.089L39.7303 100.25C41.1021 102.42 42.1439 104.256 45.1385 104.256C47.6288 104.256 49.675 103.255 49.675 99.3596V73.3032H58.8061V99.2079ZM79.4237 111.026C71.3115 111.026 66.0695 107.762 63.5107 103.255L70.635 99.578C72.5027 102.305 74.9412 104.122 79.2473 104.122C82.8665 104.122 84.9688 102.694 84.9688 100.468C84.9688 97.7979 82.8043 96.8524 78.8094 95.287L76.6263 94.4507C70.3216 92.06 66.1421 89.0551 66.1421 82.7103C66.1421 76.8688 71.1331 72.6019 78.9339 72.6019C84.4894 72.6019 88.4801 74.1414 91.3543 78.6488L84.5392 82.5549C83.0409 80.1624 81.4263 79.2242 78.9236 79.2242C76.3648 79.2242 74.7419 80.6712 74.7419 82.5549C74.7419 84.8918 76.3648 85.8374 80.1085 87.2843L82.2917 88.1188C89.719 90.9572 93.9007 93.8549 93.9007 100.361C93.9027 107.373 87.7247 111.026 79.4237 111.026Z" fill="#161524"/>
</g>
<defs>
<clipPath id="clip0_1_56">
<rect width="92.9713" height="82.8951" fill="white" transform="translate(9 34.8162)"/>
</clipPath>
</defs>
</svg>
