<svg width="79" height="117" viewBox="0 0 79 117" fill="none" xmlns="http://www.w3.org/2000/svg">
<path d="M26.7118 18.0956C26.1651 18.5356 25.5618 18.8489 24.9018 19.0356C24.2418 19.2156 23.5185 19.3056 22.7318 19.3056C21.7718 19.3056 20.9085 19.0989 20.1418 18.6856C19.3751 18.2656 18.7251 17.6989 18.1918 16.9856C17.6585 16.2722 17.2485 15.4389 16.9618 14.4856C16.6818 13.5322 16.5418 12.5156 16.5418 11.4356C16.5418 10.4289 16.6685 9.47556 16.9218 8.57556C17.1818 7.66889 17.5751 6.87556 18.1018 6.19556C18.6285 5.50889 19.2951 4.96556 20.1018 4.56556C20.9085 4.16556 21.8618 3.96556 22.9618 3.96556C23.7285 3.96556 24.4518 4.08889 25.1318 4.33556C25.8185 4.57556 26.4018 4.92556 26.8818 5.38556L25.9818 6.45556C25.6618 6.24223 25.2585 6.05556 24.7718 5.89556C24.2918 5.73556 23.7418 5.65556 23.1218 5.65556C22.3085 5.65556 21.6185 5.80889 21.0518 6.11556C20.4851 6.42223 20.0218 6.83889 19.6618 7.36556C19.3018 7.88556 19.0385 8.49556 18.8718 9.19556C18.7118 9.88889 18.6318 10.6256 18.6318 11.4056C18.6318 11.8656 18.6685 12.3389 18.7418 12.8256C18.8151 13.3056 18.9251 13.7756 19.0718 14.2356C19.2251 14.6956 19.4185 15.1289 19.6518 15.5356C19.8918 15.9422 20.1718 16.2989 20.4918 16.6056C20.8185 16.9122 21.1885 17.1556 21.6018 17.3356C22.0151 17.5156 22.4785 17.6056 22.9918 17.6056C23.2918 17.6056 23.5651 17.5922 23.8118 17.5656C24.0585 17.5389 24.2951 17.4956 24.5218 17.4356C24.7551 17.3756 24.9851 17.2989 25.2118 17.2056C25.4385 17.1056 25.6818 16.9822 25.9418 16.8356L26.7118 18.0956ZM36.344 6.39556C35.8906 6.12889 35.454 5.93223 35.034 5.80556C34.6206 5.67889 34.1573 5.61556 33.644 5.61556C33.284 5.61556 32.9306 5.65222 32.584 5.72556C32.244 5.79889 31.9406 5.91889 31.674 6.08556C31.414 6.24556 31.2006 6.45889 31.034 6.72556C30.874 6.98556 30.794 7.30556 30.794 7.68556C30.794 8.05889 30.894 8.38222 31.094 8.65556C31.294 8.92889 31.554 9.17556 31.874 9.39556C32.2006 9.60889 32.5706 9.80889 32.984 9.99556C33.404 10.1756 33.8306 10.3689 34.264 10.5756C34.6973 10.7756 35.1206 10.9989 35.534 11.2456C35.954 11.4856 36.324 11.7722 36.644 12.1056C36.9706 12.4322 37.234 12.8156 37.434 13.2556C37.634 13.6956 37.734 14.2156 37.734 14.8156C37.734 15.3089 37.6673 15.7656 37.534 16.1856C37.4006 16.5989 37.214 16.9722 36.974 17.3056C36.7406 17.6389 36.4606 17.9322 36.134 18.1856C35.8073 18.4322 35.4506 18.6389 35.064 18.8056C34.6773 18.9722 34.2673 19.0956 33.834 19.1756C33.4073 19.2622 32.9706 19.3056 32.524 19.3056C30.9706 19.2789 29.6173 18.9089 28.464 18.1956L29.374 16.6956C29.5073 16.7822 29.6806 16.8822 29.894 16.9956C30.114 17.1022 30.3573 17.2056 30.624 17.3056C30.8906 17.4056 31.174 17.4889 31.474 17.5556C31.774 17.6222 32.0773 17.6556 32.384 17.6556C32.7973 17.6556 33.2006 17.6056 33.594 17.5056C33.994 17.3989 34.3473 17.2389 34.654 17.0256C34.9673 16.8056 35.2173 16.5289 35.404 16.1956C35.5973 15.8622 35.694 15.4656 35.694 15.0056C35.694 14.5722 35.594 14.1956 35.394 13.8756C35.194 13.5489 34.9306 13.2589 34.604 13.0056C34.284 12.7456 33.914 12.5122 33.494 12.3056C33.0806 12.0989 32.6573 11.8922 32.224 11.6856C31.7906 11.4789 31.364 11.2622 30.944 11.0356C30.5306 10.8089 30.1606 10.5522 29.834 10.2656C29.514 9.97889 29.254 9.65223 29.054 9.28556C28.854 8.91223 28.754 8.47556 28.754 7.97556C28.754 7.32889 28.8873 6.75889 29.154 6.26556C29.4206 5.76556 29.7706 5.34556 30.204 5.00556C30.644 4.66556 31.1406 4.40889 31.694 4.23556C32.2473 4.05556 32.8106 3.96556 33.384 3.96556C34.804 3.96556 36.114 4.36556 37.314 5.16556L36.344 6.39556ZM47.3401 6.39556C46.8867 6.12889 46.4501 5.93223 46.0301 5.80556C45.6167 5.67889 45.1534 5.61556 44.6401 5.61556C44.2801 5.61556 43.9267 5.65222 43.5801 5.72556C43.2401 5.79889 42.9367 5.91889 42.6701 6.08556C42.4101 6.24556 42.1967 6.45889 42.0301 6.72556C41.8701 6.98556 41.7901 7.30556 41.7901 7.68556C41.7901 8.05889 41.8901 8.38222 42.0901 8.65556C42.2901 8.92889 42.5501 9.17556 42.8701 9.39556C43.1967 9.60889 43.5667 9.80889 43.9801 9.99556C44.4001 10.1756 44.8267 10.3689 45.2601 10.5756C45.6934 10.7756 46.1167 10.9989 46.5301 11.2456C46.9501 11.4856 47.3201 11.7722 47.6401 12.1056C47.9667 12.4322 48.2301 12.8156 48.4301 13.2556C48.6301 13.6956 48.7301 14.2156 48.7301 14.8156C48.7301 15.3089 48.6634 15.7656 48.5301 16.1856C48.3967 16.5989 48.2101 16.9722 47.9701 17.3056C47.7367 17.6389 47.4567 17.9322 47.1301 18.1856C46.8034 18.4322 46.4467 18.6389 46.0601 18.8056C45.6734 18.9722 45.2634 19.0956 44.8301 19.1756C44.4034 19.2622 43.9667 19.3056 43.5201 19.3056C41.9667 19.2789 40.6134 18.9089 39.4601 18.1956L40.3701 16.6956C40.5034 16.7822 40.6767 16.8822 40.8901 16.9956C41.1101 17.1022 41.3534 17.2056 41.6201 17.3056C41.8867 17.4056 42.1701 17.4889 42.4701 17.5556C42.7701 17.6222 43.0734 17.6556 43.3801 17.6556C43.7934 17.6556 44.1967 17.6056 44.5901 17.5056C44.9901 17.3989 45.3434 17.2389 45.6501 17.0256C45.9634 16.8056 46.2134 16.5289 46.4001 16.1956C46.5934 15.8622 46.6901 15.4656 46.6901 15.0056C46.6901 14.5722 46.5901 14.1956 46.3901 13.8756C46.1901 13.5489 45.9267 13.2589 45.6001 13.0056C45.2801 12.7456 44.9101 12.5122 44.4901 12.3056C44.0767 12.0989 43.6534 11.8922 43.2201 11.6856C42.7867 11.4789 42.3601 11.2622 41.9401 11.0356C41.5267 10.8089 41.1567 10.5522 40.8301 10.2656C40.5101 9.97889 40.2501 9.65223 40.0501 9.28556C39.8501 8.91223 39.7501 8.47556 39.7501 7.97556C39.7501 7.32889 39.8834 6.75889 40.1501 6.26556C40.4167 5.76556 40.7667 5.34556 41.2001 5.00556C41.6401 4.66556 42.1367 4.40889 42.6901 4.23556C43.2434 4.05556 43.8067 3.96556 44.3801 3.96556C45.8001 3.96556 47.1101 4.36556 48.3101 5.16556L47.3401 6.39556ZM51.7862 5.73556L51.9362 4.13556H59.2362V5.53556C59.1562 5.80223 59.0195 6.08223 58.8262 6.37556C58.6395 6.66223 58.4162 6.95223 58.1562 7.24556C57.9028 7.53889 57.6228 7.83222 57.3162 8.12556C57.0162 8.41222 56.7128 8.68556 56.4062 8.94556L55.0862 9.68556C55.1528 9.67223 55.2362 9.66556 55.3362 9.66556C55.4428 9.65889 55.5428 9.65556 55.6362 9.65556C56.2828 9.65556 56.8828 9.73556 57.4362 9.89556C57.9962 10.0556 58.4795 10.2989 58.8862 10.6256C59.2995 10.9456 59.6228 11.3556 59.8562 11.8556C60.0962 12.3489 60.2162 12.9322 60.2162 13.6056C60.2162 14.2522 60.0962 14.8389 59.8562 15.3656C59.6162 15.8922 59.2862 16.3622 58.8662 16.7756C58.4528 17.1822 57.9662 17.5356 57.4062 17.8356C56.8462 18.1289 56.2462 18.3722 55.6062 18.5656C54.9728 18.7589 54.3162 18.9022 53.6362 18.9956C52.9562 19.0889 52.2895 19.1356 51.6362 19.1356V17.5356C52.1895 17.5156 52.7328 17.4656 53.2662 17.3856C53.7995 17.3056 54.3062 17.1956 54.7862 17.0556C55.2662 16.9089 55.7095 16.7322 56.1162 16.5256C56.5228 16.3189 56.8728 16.0789 57.1662 15.8056C57.4662 15.5256 57.6995 15.2122 57.8662 14.8656C58.0328 14.5189 58.1162 14.1322 58.1162 13.7056C58.1162 13.2256 58.0128 12.8256 57.8062 12.5056C57.6062 12.1856 57.3295 11.9322 56.9762 11.7456C56.6228 11.5589 56.2062 11.4289 55.7262 11.3556C55.2528 11.2756 54.7428 11.2356 54.1962 11.2356C53.9828 11.2356 53.7495 11.2422 53.4962 11.2556C53.2495 11.2622 53.0262 11.2722 52.8262 11.2856V9.73556C53.0995 9.53556 53.3962 9.30889 53.7162 9.05556C54.0362 8.80223 54.3595 8.53889 54.6862 8.26556C55.0128 7.98556 55.3295 7.70556 55.6362 7.42556C55.9495 7.13889 56.2328 6.86889 56.4862 6.61556C56.7395 6.35556 56.9528 6.11556 57.1262 5.89556C57.2995 5.67556 57.4128 5.48889 57.4662 5.33556L55.9462 5.73556H51.7862Z" fill="#161524"/>
<path d="M0.251709 34.8162L7.42862 108.664L39.5751 116.865L71.8158 108.651L78.9927 34.8162H0.251709ZM59.857 96.1516L39.6366 101.298L19.4469 96.126L18.0628 81.8846H27.9587L28.662 89.1298L39.6509 91.9063L39.6776 91.9576L50.6419 89.2379L51.7984 77.4891H28.7543L27.9341 68.3318H52.6739L53.5659 58.9914H15.8359L15.0156 50.0172H64.3477L59.857 96.1516Z" fill="#161524"/>
</svg>
