<svg width="103" height="121" viewBox="0 0 103 121" fill="none" xmlns="http://www.w3.org/2000/svg">
<path d="M25.1178 19.1356L18.9678 8.85556L17.7978 5.96556L17.7378 5.97556L18.1178 9.13556V19.1356H16.1178V6.23556L15.8178 4.13556L18.1778 3.93556L24.3378 14.2656L25.5378 17.4056L25.5978 17.3956L25.1178 14.0356V4.13556L27.0678 3.93556V19.1356H25.1178ZM35.1078 19.3056C34.3678 19.3056 33.6912 19.1622 33.0778 18.8756C32.4712 18.5822 31.9478 18.1822 31.5078 17.6756C31.0678 17.1622 30.7245 16.5589 30.4778 15.8656C30.2378 15.1656 30.1178 14.4122 30.1178 13.6056C30.1178 12.7989 30.2345 12.0522 30.4678 11.3656C30.7012 10.6722 31.0345 10.0756 31.4678 9.57556C31.9012 9.06889 32.4245 8.67556 33.0378 8.39556C33.6578 8.10889 34.3478 7.96556 35.1078 7.96556C35.8478 7.96556 36.5245 8.10889 37.1378 8.39556C37.7512 8.67556 38.2778 9.06889 38.7178 9.57556C39.1578 10.0756 39.5012 10.6722 39.7478 11.3656C39.9945 12.0522 40.1178 12.7989 40.1178 13.6056C40.1178 14.4122 39.9978 15.1656 39.7578 15.8656C39.5245 16.5589 39.1912 17.1622 38.7578 17.6756C38.3245 18.1822 37.7978 18.5822 37.1778 18.8756C36.5578 19.1622 35.8678 19.3056 35.1078 19.3056ZM38.2178 13.8756C38.2178 13.3356 38.1578 12.8056 38.0378 12.2856C37.9245 11.7656 37.7412 11.3022 37.4878 10.8956C37.2345 10.4822 36.9078 10.1489 36.5078 9.89556C36.1078 9.64223 35.6278 9.51556 35.0678 9.51556C34.5345 9.51556 34.0745 9.62556 33.6878 9.84556C33.3012 10.0656 32.9845 10.3589 32.7378 10.7256C32.4912 11.0922 32.3078 11.5089 32.1878 11.9756C32.0745 12.4422 32.0178 12.9222 32.0178 13.4156C32.0178 13.9556 32.0745 14.4856 32.1878 15.0056C32.3078 15.5256 32.4912 15.9889 32.7378 16.3956C32.9912 16.8022 33.3145 17.1322 33.7078 17.3856C34.1078 17.6322 34.5878 17.7556 35.1478 17.7556C35.6745 17.7556 36.1312 17.6456 36.5178 17.4256C36.9045 17.2056 37.2245 16.9156 37.4778 16.5556C37.7312 16.1889 37.9178 15.7722 38.0378 15.3056C38.1578 14.8389 38.2178 14.3622 38.2178 13.8756ZM47.67 9.73556C47.0567 9.73556 46.5267 9.85223 46.08 10.0856C45.6334 10.3122 45.2634 10.6222 44.97 11.0156C44.6767 11.4089 44.46 11.8722 44.32 12.4056C44.18 12.9389 44.11 13.5089 44.11 14.1156C44.11 14.7089 44.18 15.2289 44.32 15.6756C44.46 16.1222 44.64 16.4956 44.86 16.7956C45.0867 17.0956 45.3434 17.3222 45.63 17.4756C45.9167 17.6222 46.21 17.6956 46.51 17.6956C46.8234 17.6956 47.1134 17.6422 47.38 17.5356C47.6534 17.4289 47.9034 17.2956 48.13 17.1356C48.3567 16.9756 48.56 16.8022 48.74 16.6156C48.92 16.4222 49.0767 16.2422 49.21 16.0756V9.73556H47.67ZM49.21 19.1356V17.5156L48.26 18.6456C48.14 18.7256 48.01 18.8056 47.87 18.8856C47.73 18.9656 47.5734 19.0356 47.4 19.0956C47.2267 19.1556 47.0334 19.2056 46.82 19.2456C46.6134 19.2856 46.38 19.3056 46.12 19.3056C45.5734 19.3056 45.0634 19.1722 44.59 18.9056C44.1167 18.6322 43.7034 18.2556 43.35 17.7756C43.0034 17.2956 42.7267 16.7256 42.52 16.0656C42.32 15.3989 42.22 14.6689 42.22 13.8756C42.22 13.0756 42.3467 12.3289 42.6 11.6356C42.86 10.9356 43.2267 10.3256 43.7 9.80556C44.1734 9.28556 44.7434 8.87889 45.41 8.58556C46.0834 8.28556 46.8334 8.13556 47.66 8.13556H49.21V2.93556L51.11 3.13556V17.3356L51.31 19.1356H49.21ZM62.7622 17.8456C62.5555 18.0589 62.3289 18.2556 62.0822 18.4356C61.8355 18.6156 61.5622 18.7722 61.2622 18.9056C60.9622 19.0322 60.6289 19.1289 60.2622 19.1956C59.9022 19.2689 59.4989 19.3056 59.0522 19.3056C58.1655 19.3056 57.4089 19.1489 56.7822 18.8356C56.1555 18.5222 55.6422 18.1022 55.2422 17.5756C54.8489 17.0489 54.5589 16.4456 54.3722 15.7656C54.1922 15.0856 54.1022 14.3756 54.1022 13.6356C54.1022 13.1622 54.1455 12.6956 54.2322 12.2356C54.3189 11.7689 54.4489 11.3256 54.6222 10.9056C54.7955 10.4856 55.0122 10.0956 55.2722 9.73556C55.5322 9.37556 55.8355 9.06556 56.1822 8.80556C56.5289 8.54556 56.9189 8.34223 57.3522 8.19556C57.7922 8.04222 58.2755 7.96556 58.8022 7.96556C59.5222 7.96556 60.1455 8.08223 60.6722 8.31556C61.1989 8.54889 61.6355 8.87556 61.9822 9.29556C62.3289 9.71556 62.5855 10.2189 62.7522 10.8056C62.9189 11.3922 63.0022 12.0422 63.0022 12.7556C63.0022 12.9622 62.9955 13.1889 62.9822 13.4356C62.9689 13.6822 62.9489 13.9156 62.9222 14.1356H56.0022C56.0022 14.6356 56.0689 15.1022 56.2022 15.5356C56.3422 15.9689 56.5355 16.3489 56.7822 16.6756C57.0289 16.9956 57.3255 17.2489 57.6722 17.4356C58.0255 17.6156 58.4189 17.7056 58.8522 17.7056C59.2789 17.7056 59.6489 17.6756 59.9622 17.6156C60.2822 17.5489 60.5555 17.4722 60.7822 17.3856C61.0089 17.2922 61.1922 17.1989 61.3322 17.1056C61.4789 17.0122 61.5922 16.9389 61.6722 16.8856L62.7622 17.8456ZM61.1022 12.6356C61.1089 12.5622 61.1122 12.4889 61.1122 12.4156C61.1189 12.3422 61.1222 12.2689 61.1222 12.1956C61.1222 11.8156 61.0789 11.4656 60.9922 11.1456C60.9055 10.8256 60.7722 10.5489 60.5922 10.3156C60.4189 10.0756 60.1955 9.88889 59.9222 9.75556C59.6489 9.62223 59.3255 9.55556 58.9522 9.55556C58.5055 9.55556 58.1222 9.62889 57.8022 9.77556C57.4889 9.91556 57.2222 10.0989 57.0022 10.3256C56.7889 10.5456 56.6155 10.7889 56.4822 11.0556C56.3555 11.3222 56.2589 11.5756 56.1922 11.8156L55.6722 12.9056L57.4522 12.6356H61.1022ZM64.9583 17.6356C64.9583 17.4089 65.0016 17.1956 65.0883 16.9956C65.175 16.7956 65.2916 16.6222 65.4383 16.4756C65.5916 16.3222 65.765 16.2022 65.9583 16.1156C66.1583 16.0289 66.3716 15.9856 66.5983 15.9856C66.825 15.9856 67.0383 16.0289 67.2383 16.1156C67.4383 16.2022 67.6116 16.3222 67.7583 16.4756C67.9116 16.6222 68.0316 16.7956 68.1183 16.9956C68.205 17.1956 68.2483 17.4089 68.2483 17.6356C68.2483 17.8622 68.205 18.0789 68.1183 18.2856C68.0316 18.4856 67.915 18.6622 67.7683 18.8156C67.6216 18.9622 67.4483 19.0789 67.2483 19.1656C67.055 19.2589 66.845 19.3056 66.6183 19.3056C66.3916 19.3056 66.175 19.2589 65.9683 19.1656C65.7683 19.0789 65.5916 18.9622 65.4383 18.8156C65.2916 18.6622 65.175 18.4856 65.0883 18.2856C65.0016 18.0789 64.9583 17.8622 64.9583 17.6356ZM72.7944 4.16556L77.0944 3.93556V14.8356C77.0944 16.1156 76.7477 17.1722 76.0544 18.0056C75.3677 18.8389 74.3711 19.2722 73.0644 19.3056C71.9444 19.3056 70.9544 18.8656 70.0944 17.9856L71.0144 16.8056C71.0811 16.8722 71.1777 16.9522 71.3044 17.0456C71.4377 17.1322 71.5911 17.2156 71.7644 17.2956C71.9377 17.3756 72.1244 17.4422 72.3244 17.4956C72.5311 17.5489 72.7444 17.5756 72.9644 17.5756C73.6577 17.5756 74.1677 17.3156 74.4944 16.7956C74.8277 16.2756 74.9944 15.4889 74.9944 14.4356V7.65556L75.1944 5.75556L72.9944 5.88556L72.7944 4.16556ZM87.7983 6.39556C87.345 6.12889 86.9083 5.93223 86.4883 5.80556C86.075 5.67889 85.6116 5.61556 85.0983 5.61556C84.7383 5.61556 84.385 5.65222 84.0383 5.72556C83.6983 5.79889 83.395 5.91889 83.1283 6.08556C82.8683 6.24556 82.655 6.45889 82.4883 6.72556C82.3283 6.98556 82.2483 7.30556 82.2483 7.68556C82.2483 8.05889 82.3483 8.38222 82.5483 8.65556C82.7483 8.92889 83.0083 9.17556 83.3283 9.39556C83.655 9.60889 84.025 9.80889 84.4383 9.99556C84.8583 10.1756 85.285 10.3689 85.7183 10.5756C86.1516 10.7756 86.575 10.9989 86.9883 11.2456C87.4083 11.4856 87.7783 11.7722 88.0983 12.1056C88.425 12.4322 88.6883 12.8156 88.8883 13.2556C89.0883 13.6956 89.1883 14.2156 89.1883 14.8156C89.1883 15.3089 89.1216 15.7656 88.9883 16.1856C88.855 16.5989 88.6683 16.9722 88.4283 17.3056C88.195 17.6389 87.915 17.9322 87.5883 18.1856C87.2616 18.4322 86.905 18.6389 86.5183 18.8056C86.1316 18.9722 85.7216 19.0956 85.2883 19.1756C84.8616 19.2622 84.425 19.3056 83.9783 19.3056C82.425 19.2789 81.0716 18.9089 79.9183 18.1956L80.8283 16.6956C80.9616 16.7822 81.135 16.8822 81.3483 16.9956C81.5683 17.1022 81.8116 17.2056 82.0783 17.3056C82.345 17.4056 82.6283 17.4889 82.9283 17.5556C83.2283 17.6222 83.5316 17.6556 83.8383 17.6556C84.2516 17.6556 84.655 17.6056 85.0483 17.5056C85.4483 17.3989 85.8016 17.2389 86.1083 17.0256C86.4216 16.8056 86.6716 16.5289 86.8583 16.1956C87.0516 15.8622 87.1483 15.4656 87.1483 15.0056C87.1483 14.5722 87.0483 14.1956 86.8483 13.8756C86.6483 13.5489 86.385 13.2589 86.0583 13.0056C85.7383 12.7456 85.3683 12.5122 84.9483 12.3056C84.535 12.0989 84.1116 11.8922 83.6783 11.6856C83.245 11.4789 82.8183 11.2622 82.3983 11.0356C81.985 10.8089 81.615 10.5522 81.2883 10.2656C80.9683 9.97889 80.7083 9.65223 80.5083 9.28556C80.3083 8.91223 80.2083 8.47556 80.2083 7.97556C80.2083 7.32889 80.3416 6.75889 80.6083 6.26556C80.875 5.76556 81.225 5.34556 81.6583 5.00556C82.0983 4.66556 82.595 4.40889 83.1483 4.23556C83.7016 4.05556 84.265 3.96556 84.8383 3.96556C86.2583 3.96556 87.5683 4.36556 88.7683 5.16556L87.7983 6.39556Z" fill="#161524"/>
<g clip-path="url(#clip0_1_67)">
<path d="M90.7371 49.6915L55.6683 30.8969C54.4087 30.2552 52.9837 29.9177 51.5338 29.9177C50.0838 29.9177 48.6588 30.2552 47.3992 30.8969L12.3282 49.6895C11.0643 50.3816 10.0215 51.3532 9.30064 52.5106C8.57974 53.6679 8.20505 54.9719 8.21278 56.2964V93.8312C8.2052 95.1565 8.57989 96.4613 9.30073 97.6196C10.0216 98.7779 11.0642 99.7507 12.3282 100.444L21.5246 105.351L21.5765 105.378C26.2199 107.501 27.9978 107.501 30.0577 107.501C37.3093 107.501 41.815 103.307 41.815 96.555V60.1614C41.8192 59.707 41.6216 59.2697 41.2654 58.9454C40.9093 58.6211 40.4237 58.4363 39.9153 58.4315H34.8658C34.3573 58.4363 33.8718 58.6211 33.5156 58.9454C33.1595 59.2697 32.9618 59.707 32.966 60.1614V96.555C32.9844 97.076 32.8518 97.5924 32.581 98.0541C32.3102 98.5158 31.9104 98.9072 31.4205 99.1901C30.0893 99.9159 28.1557 99.7627 25.9739 98.7566L17.161 94.0167C17.1273 93.9961 17.0998 93.9684 17.0809 93.9361C17.062 93.9037 17.0523 93.8677 17.0527 93.8312V56.8267C17.0542 56.7841 17.067 56.7425 17.0902 56.7053C17.1134 56.6682 17.1462 56.6365 17.1859 56.613L51.4447 37.8627C51.4702 37.8514 51.4984 37.8454 51.527 37.8454C51.5556 37.8454 51.5838 37.8514 51.6094 37.8627L85.8885 56.613C85.9275 56.6384 85.9591 56.6718 85.9807 56.7104C86.0023 56.749 86.0132 56.7916 86.0126 56.8347V93.8312C86.0134 93.8694 86.0047 93.9073 85.9872 93.9422C85.9696 93.9771 85.9436 94.008 85.911 94.0328L51.6026 112.309C51.5441 112.327 51.4805 112.327 51.4221 112.309L42.6611 107.66C42.401 107.508 42.1005 107.42 41.7902 107.406C41.48 107.391 41.1709 107.451 40.8945 107.577L40.8177 107.618C38.3991 108.898 37.7493 109.231 35.5066 109.96C35.141 110.079 34.2814 110.364 34.207 111.124C34.1325 111.884 34.9493 112.424 35.6758 112.801L47.3857 119.227C48.6333 119.895 50.0602 120.248 51.5146 120.249H51.6455C53.0635 120.229 54.4508 119.876 55.6683 119.227L90.7371 100.45C92.0004 99.7546 93.0424 98.7805 93.763 97.6214C94.4837 96.4623 94.8589 95.1571 94.8525 93.8312V56.2964C94.8596 54.9723 94.4847 53.6688 93.7638 52.5119C93.0429 51.3549 92.0005 50.3836 90.7371 49.6915Z" fill="#161524"/>
<path d="M61.9175 85.9637C54.5244 85.9637 52.9482 84.1217 52.4803 81.1484C52.4276 80.7944 52.2341 80.469 51.935 80.2315C51.6359 79.994 51.2511 79.8602 50.8506 79.8544H46.9251C46.4826 79.8628 46.0619 80.027 45.755 80.3113C45.4481 80.5955 45.28 80.9766 45.2874 81.3711C45.2874 83.9485 46.3025 92.3611 61.9255 92.3611C66.7591 92.3611 70.7798 91.3535 73.5495 89.4461C76.3192 87.5387 77.8022 84.7634 77.8022 81.456C77.8022 74.8181 72.9448 73.0009 63.3787 71.813C53.654 70.6074 53.654 69.994 53.654 68.6505C53.654 67.6836 53.654 65.4191 60.6844 65.4191C65.6865 65.4191 68.365 65.983 69.2215 68.9546C69.2973 69.284 69.4971 69.5805 69.7877 69.7949C70.0783 70.0093 70.4423 70.1288 70.8194 70.1336H74.7589C74.9911 70.1316 75.2201 70.0854 75.4307 69.9983C75.6413 69.9111 75.8286 69.7849 75.9802 69.6281C76.2831 69.3128 76.4341 68.9037 76.4005 68.4896C75.891 62.2053 70.7382 59.0181 60.6903 59.0181C51.5584 59.0181 46.1082 62.6862 46.1082 68.829C46.1082 75.5641 51.7567 77.468 60.2422 78.2564C70.1553 79.1703 70.1553 80.5032 70.1553 81.6805C70.1612 83.5154 69.3067 85.9637 61.9175 85.9637Z" fill="#161524"/>
</g>
<defs>
<clipPath id="clip0_1_67">
<rect width="101.51" height="90.5079" fill="white" transform="translate(0.877014 29.741)"/>
</clipPath>
</defs>
</svg>
