<svg width="85" height="118" viewBox="0 0 85 118" fill="none" xmlns="http://www.w3.org/2000/svg">
<path d="M5.87391 19L10.1039 6L10.4539 4L12.6239 3.8L17.6039 19H15.6039L14.1239 14.5H9.17391L7.71391 19H5.87391ZM11.6439 5.4L11.2839 8L9.66391 13H13.6339L12.0039 8L11.6439 5.4ZM22.1617 19H20.2617V8L22.1617 7.8V9.63L22.7717 8.56C22.8917 8.48 23.0451 8.39667 23.2317 8.31C23.4184 8.22333 23.6251 8.14667 23.8517 8.08C24.0851 8.00667 24.3351 7.94667 24.6017 7.9C24.8684 7.85333 25.1384 7.83 25.4117 7.83C25.9384 7.83 26.3817 7.91667 26.7417 8.09C27.1084 8.25667 27.4051 8.5 27.6317 8.82C27.8584 9.14 28.0184 9.52667 28.1117 9.98C28.2117 10.4333 28.2617 10.94 28.2617 11.5V19H26.3617V11.5C26.3617 11.14 26.3351 10.83 26.2817 10.57C26.2351 10.31 26.1484 10.0967 26.0217 9.93C25.9017 9.75667 25.7384 9.63 25.5317 9.55C25.3251 9.47 25.0684 9.43 24.7617 9.43C24.5351 9.43 24.3051 9.46667 24.0717 9.54C23.8384 9.60667 23.6084 9.69667 23.3817 9.81C23.1617 9.91667 22.9451 10.0367 22.7317 10.17C22.5251 10.3033 22.3351 10.4333 22.1617 10.56V19ZM38.3539 17.65L37.4839 18.75C37.4239 18.79 37.3372 18.8333 37.2239 18.88C37.1172 18.9267 36.9839 18.97 36.8239 19.01C36.6639 19.0567 36.4772 19.0933 36.2639 19.12C36.0506 19.1533 35.8139 19.17 35.5539 19.17C34.9472 19.17 34.3806 19.0233 33.8539 18.73C33.3339 18.43 32.8806 18.0267 32.4939 17.52C32.1072 17.0067 31.8039 16.41 31.5839 15.73C31.3639 15.0433 31.2539 14.3167 31.2539 13.55C31.2539 12.77 31.3539 12.0333 31.5539 11.34C31.7539 10.6467 32.0539 10.04 32.4539 9.52C32.8539 9 33.3506 8.59 33.9439 8.29C34.5372 7.98333 35.2272 7.83 36.0139 7.83C36.2606 7.83 36.5006 7.84 36.7339 7.86C36.9739 7.88 37.1972 7.92667 37.4039 8L38.3539 9.42V7.8L40.2539 8V19.46C40.2539 20.1133 40.1406 20.7267 39.9139 21.3C39.6939 21.8733 39.3739 22.37 38.9539 22.79C38.5339 23.2167 38.0206 23.5533 37.4139 23.8C36.8139 24.0467 36.1339 24.17 35.3739 24.17C34.8472 24.17 34.3839 24.1033 33.9839 23.97C33.5906 23.8367 33.2539 23.69 32.9739 23.53C32.6539 23.3433 32.3772 23.1267 32.1439 22.88L33.1239 21.78C33.3172 21.9267 33.5339 22.06 33.7739 22.18C33.9806 22.28 34.2206 22.37 34.4939 22.45C34.7672 22.53 35.0639 22.57 35.3839 22.57C35.7972 22.57 36.1839 22.4833 36.5439 22.31C36.9039 22.1433 37.2172 21.9133 37.4839 21.62C37.7572 21.3267 37.9706 20.98 38.1239 20.58C38.2772 20.1867 38.3539 19.7633 38.3539 19.31V17.65ZM38.3539 10.66C38.1739 10.4333 37.9639 10.23 37.7239 10.05C37.5172 9.89667 37.2672 9.75667 36.9739 9.63C36.6806 9.49667 36.3439 9.43 35.9639 9.43C35.5639 9.43 35.2172 9.49333 34.9239 9.62C34.6306 9.74667 34.3772 9.91667 34.1639 10.13C33.9572 10.3433 33.7872 10.5933 33.6539 10.88C33.5272 11.16 33.4239 11.46 33.3439 11.78C33.2706 12.0933 33.2206 12.4133 33.1939 12.74C33.1672 13.06 33.1539 13.37 33.1539 13.67C33.1539 14.2367 33.2139 14.76 33.3339 15.24C33.4606 15.7133 33.6339 16.1233 33.8539 16.47C34.0806 16.81 34.3506 17.0767 34.6639 17.27C34.9839 17.4633 35.3339 17.56 35.7139 17.56C36.0539 17.56 36.3572 17.5233 36.6239 17.45C36.8906 17.3767 37.1306 17.28 37.3439 17.16C37.5572 17.0333 37.7439 16.8933 37.9039 16.74C38.0706 16.58 38.2206 16.4167 38.3539 16.25V10.66ZM50.3461 8L52.2461 7.8V19H50.3461V17.37L49.7361 18.44C49.6161 18.52 49.4728 18.6033 49.3061 18.69C49.1461 18.7767 48.9628 18.8567 48.7561 18.93C48.5494 18.9967 48.3228 19.0533 48.0761 19.1C47.8294 19.1467 47.5694 19.17 47.2961 19.17C46.7628 19.17 46.3028 19.0733 45.9161 18.88C45.5361 18.6867 45.2228 18.4167 44.9761 18.07C44.7294 17.7233 44.5461 17.3133 44.4261 16.84C44.3061 16.36 44.2461 15.84 44.2461 15.28V8L46.1461 7.8V15.28C46.1461 16 46.2894 16.5633 46.5761 16.97C46.8694 17.37 47.3261 17.57 47.9461 17.57C48.1728 17.57 48.3961 17.5333 48.6161 17.46C48.8361 17.3867 49.0494 17.2933 49.2561 17.18C49.4628 17.0667 49.6561 16.9433 49.8361 16.81C50.0228 16.6767 50.1928 16.5467 50.3461 16.42V8ZM58.1383 15.24C58.1383 15.68 58.1616 16.05 58.2083 16.35C58.2616 16.6433 58.3349 16.8833 58.4283 17.07C58.5283 17.25 58.6483 17.38 58.7883 17.46C58.9349 17.5333 59.1016 17.57 59.2883 17.57C59.4349 17.57 59.5683 17.5633 59.6883 17.55C59.8083 17.53 59.9116 17.5067 59.9983 17.48C60.0983 17.4533 60.1883 17.4233 60.2683 17.39L60.9583 18.6C60.9049 18.6533 60.8183 18.7133 60.6983 18.78C60.5849 18.84 60.4483 18.9 60.2883 18.96C60.1283 19.02 59.9449 19.07 59.7383 19.11C59.5383 19.15 59.3216 19.17 59.0883 19.17C58.4883 19.17 58.0016 19.06 57.6283 18.84C57.2549 18.62 56.9649 18.32 56.7583 17.94C56.5516 17.56 56.4116 17.12 56.3383 16.62C56.2716 16.1133 56.2383 15.5733 56.2383 15V5L56.0383 3L58.1383 2.8V15.24ZM70.4305 19H68.3305V17.38L67.3905 18.5C67.2771 18.5867 67.1471 18.67 67.0005 18.75C66.8538 18.83 66.7038 18.9033 66.5505 18.97C66.4038 19.03 66.2538 19.0767 66.1005 19.11C65.9538 19.15 65.8171 19.17 65.6905 19.17C65.1905 19.17 64.7105 19.0933 64.2505 18.94C63.7971 18.78 63.3971 18.55 63.0505 18.25C62.7105 17.9433 62.4371 17.5667 62.2305 17.12C62.0305 16.6667 61.9305 16.1467 61.9305 15.56C61.9305 14.94 62.0538 14.4033 62.3005 13.95C62.5538 13.49 62.8738 13.11 63.2605 12.81C63.6538 12.5033 64.0905 12.2767 64.5705 12.13C65.0505 11.9767 65.5205 11.9 65.9805 11.9C66.3605 11.9 66.6938 11.92 66.9805 11.96C67.2738 12 67.5205 12.0467 67.7205 12.1C67.9538 12.16 68.1571 12.2267 68.3305 12.3V11.95C68.3305 11.5567 68.3071 11.2033 68.2605 10.89C68.2138 10.5767 68.1171 10.3133 67.9705 10.1C67.8305 9.88 67.6238 9.71333 67.3505 9.6C67.0838 9.48667 66.7271 9.43 66.2805 9.43C65.9205 9.43 65.5738 9.45667 65.2405 9.51C64.9071 9.55667 64.6105 9.61 64.3505 9.67C64.0438 9.74333 63.7605 9.82 63.5005 9.9L62.7805 8.56C63.0738 8.42667 63.4071 8.30667 63.7805 8.2C64.1005 8.10667 64.4805 8.02333 64.9205 7.95C65.3605 7.87 65.8471 7.83 66.3805 7.83C67.1471 7.83 67.7805 7.93333 68.2805 8.14C68.7805 8.34667 69.1738 8.63667 69.4605 9.01C69.7471 9.38333 69.9471 9.83333 70.0605 10.36C70.1738 10.88 70.2305 11.46 70.2305 12.1V17.2L70.4305 19ZM68.3305 13.67C68.1438 13.6433 67.9438 13.6167 67.7305 13.59C67.5505 13.57 67.3438 13.55 67.1105 13.53C66.8771 13.51 66.6338 13.5 66.3805 13.5C66.0071 13.5 65.6638 13.5367 65.3505 13.61C65.0438 13.6833 64.7771 13.8033 64.5505 13.97C64.3238 14.13 64.1471 14.34 64.0205 14.6C63.8938 14.86 63.8305 15.1767 63.8305 15.55C63.8305 15.85 63.8805 16.1233 63.9805 16.37C64.0805 16.6167 64.2171 16.83 64.3905 17.01C64.5638 17.19 64.7671 17.33 65.0005 17.43C65.2405 17.5233 65.4971 17.57 65.7705 17.57C65.8971 17.57 66.0305 17.5533 66.1705 17.52C66.3171 17.48 66.4605 17.43 66.6005 17.37C66.7471 17.31 66.8905 17.24 67.0305 17.16C67.1771 17.08 67.3138 17 67.4405 16.92C67.7405 16.7267 68.0371 16.5067 68.3305 16.26V13.67ZM78.4483 9.52C78.1816 9.52 77.9183 9.57333 77.6583 9.68C77.3983 9.78667 77.1483 9.93 76.9083 10.11C76.6683 10.29 76.4416 10.5 76.2283 10.74C76.0149 10.98 75.8183 11.2333 75.6383 11.5V19H73.7383V8L75.6383 7.8V10.05L76.6383 8.3C76.7249 8.24667 76.8316 8.19333 76.9583 8.14C77.0916 8.08 77.2416 8.03 77.4083 7.99C77.5749 7.94333 77.7516 7.90667 77.9383 7.88C78.1316 7.84667 78.3283 7.83 78.5283 7.83C78.8283 7.83 79.0783 7.85667 79.2783 7.91C79.4849 7.96333 79.6383 8.01333 79.7383 8.06L79.6383 9.72C79.5383 9.68667 79.3883 9.64667 79.1883 9.6C78.9883 9.54667 78.7416 9.52 78.4483 9.52Z" fill="#161524"/>
<path d="M34.7077 74.9578H50.2923L42.5 56.3516L34.7077 74.9578ZM42.5 27L0 42.1125L6.50385 98.1141L42.5 118L78.4961 98.1141L85 42.1125L42.5 27ZM69.129 96.4281H59.1891L53.8306 83.1437H31.2103L25.8518 96.4281H15.8915L42.5 37.0547L69.129 96.4281Z" fill="#161524"/>
</svg>
