<svg width="20" height="27" viewBox="0 0 20 27" fill="none" xmlns="http://www.w3.org/2000/svg">
<path d="M11.6667 7.08333V0H1.25C0.557292 0 0 0.557292 0 1.25V25.4167C0 26.1094 0.557292 26.6667 1.25 26.6667H18.75C19.4427 26.6667 20 26.1094 20 25.4167V8.33333H12.9167C12.2292 8.33333 11.6667 7.77083 11.6667 7.08333ZM15.651 18.0937L10.625 23.0781C10.2812 23.4219 9.71875 23.4219 9.375 23.0781L4.35417 18.0937C3.82292 17.5677 4.19792 16.6667 4.9375 16.6667H8.33333V12.5C8.33333 12.0417 8.70833 11.6667 9.16667 11.6667H10.8333C11.2917 11.6667 11.6667 12.0417 11.6667 12.5V16.6667H15.0625C15.8073 16.6667 16.1771 17.5677 15.651 18.0937ZM19.6354 5.46875L14.5365 0.364583C14.3021 0.130208 13.9844 0 13.651 0H13.3333V6.66667H20V6.34896C20 6.02083 19.8698 5.70312 19.6354 5.46875Z" fill="#F5F5F5"/>
</svg>
