<svg width="91" height="118" viewBox="0 0 91 118" fill="none" xmlns="http://www.w3.org/2000/svg">
<path d="M25.5059 17.03C25.2325 17.33 24.9259 17.6133 24.5859 17.88C24.2459 18.14 23.8725 18.3667 23.4659 18.56C23.0592 18.7467 22.6159 18.8933 22.1359 19C21.6559 19.1133 21.1392 19.17 20.5859 19.17C19.6259 19.17 18.7625 18.9633 17.9959 18.55C17.2292 18.13 16.5759 17.5633 16.0359 16.85C15.5025 16.1367 15.0925 15.3033 14.8059 14.35C14.5259 13.3967 14.3859 12.38 14.3859 11.3C14.3859 10.2933 14.5125 9.34 14.7659 8.44C15.0259 7.53333 15.4192 6.74 15.9459 6.06C16.4792 5.37333 17.1492 4.83 17.9559 4.43C18.7625 4.03 19.7159 3.83 20.8159 3.83C21.5825 3.83 22.3059 3.95333 22.9859 4.2C23.6725 4.44 24.2559 4.79 24.7359 5.25L23.8359 6.32C23.5159 6.10667 23.1125 5.92 22.6259 5.76C22.1459 5.6 21.5959 5.52 20.9759 5.52C20.1625 5.52 19.4725 5.67333 18.9059 5.98C18.3392 6.28667 17.8759 6.70333 17.5159 7.23C17.1559 7.75 16.8925 8.36 16.7259 9.06C16.5659 9.75333 16.4859 10.49 16.4859 11.27C16.4859 11.73 16.5225 12.2033 16.5959 12.69C16.6692 13.17 16.7792 13.64 16.9259 14.1C17.0792 14.56 17.2725 14.9933 17.5059 15.4C17.7459 15.8067 18.0259 16.1633 18.3459 16.47C18.6725 16.7767 19.0425 17.02 19.4559 17.2C19.8692 17.38 20.3325 17.47 20.8459 17.47C21.1459 17.47 21.4359 17.44 21.7159 17.38C21.9959 17.3133 22.2559 17.23 22.4959 17.13C22.7359 17.03 22.9492 16.92 23.1359 16.8C23.3292 16.6733 23.4859 16.5467 23.6059 16.42V12.55L20.5059 12.35V10.95H25.5059V17.03ZM30.4137 19H28.5137V8.45L30.4137 8.25V19ZM28.4537 4H30.4737V6H28.4537V4ZM36.4098 15.24C36.4098 15.68 36.4331 16.05 36.4798 16.35C36.5331 16.6433 36.6064 16.8833 36.6998 17.07C36.7998 17.25 36.9198 17.38 37.0598 17.46C37.2064 17.5333 37.3731 17.57 37.5598 17.57C37.7064 17.57 37.8398 17.5633 37.9598 17.55C38.0798 17.53 38.1831 17.5067 38.2698 17.48C38.3698 17.4533 38.4598 17.4233 38.5398 17.39L39.2298 18.6C39.1764 18.6533 39.0898 18.7133 38.9698 18.78C38.8564 18.84 38.7198 18.9 38.5598 18.96C38.3998 19.02 38.2164 19.07 38.0098 19.11C37.8098 19.15 37.5931 19.17 37.3598 19.17C36.7598 19.17 36.2731 19.06 35.8998 18.84C35.5264 18.62 35.2364 18.32 35.0298 17.94C34.8231 17.56 34.6831 17.12 34.6098 16.62C34.5431 16.1133 34.5098 15.5733 34.5098 15V9.6H33.0098V8H34.5098V5.91L36.3598 4.8V8H39.7598L39.5598 9.6H36.4098V15.24ZM44.4176 19H42.5176V5L42.3176 3L44.4176 2.8V9.5L45.3076 8.35C45.5676 8.20333 45.8776 8.08 46.2376 7.98C46.5976 7.88 46.9909 7.83 47.4176 7.83C48.4176 7.83 49.1842 8.16333 49.7176 8.83C50.2509 9.49667 50.5176 10.4533 50.5176 11.7V19H48.6176V11.91C48.6176 11.4633 48.5776 11.0833 48.4976 10.77C48.4242 10.4567 48.3176 10.2 48.1776 10C48.0376 9.8 47.8642 9.65667 47.6576 9.57C47.4509 9.47667 47.2176 9.43 46.9576 9.43C46.6976 9.43 46.4442 9.46333 46.1976 9.53C45.9509 9.59 45.7176 9.67667 45.4976 9.79C45.2776 9.89667 45.0742 10.0267 44.8876 10.18C44.7076 10.3267 44.5509 10.49 44.4176 10.67V19ZM60.6098 8L62.5098 7.8V19H60.6098V17.37L59.9998 18.44C59.8798 18.52 59.7364 18.6033 59.5698 18.69C59.4098 18.7767 59.2264 18.8567 59.0198 18.93C58.8131 18.9967 58.5864 19.0533 58.3398 19.1C58.0931 19.1467 57.8331 19.17 57.5598 19.17C57.0264 19.17 56.5664 19.0733 56.1798 18.88C55.7998 18.6867 55.4864 18.4167 55.2398 18.07C54.9931 17.7233 54.8098 17.3133 54.6898 16.84C54.5698 16.36 54.5098 15.84 54.5098 15.28V8L56.4098 7.8V15.28C56.4098 16 56.5531 16.5633 56.8398 16.97C57.1331 17.37 57.5898 17.57 58.2098 17.57C58.4364 17.57 58.6598 17.5333 58.8798 17.46C59.0998 17.3867 59.3131 17.2933 59.5198 17.18C59.7264 17.0667 59.9198 16.9433 60.0998 16.81C60.2864 16.6767 60.4564 16.5467 60.6098 16.42V8ZM68.402 17.29C68.5286 17.33 68.6753 17.37 68.842 17.41C69.0086 17.4433 69.1853 17.4733 69.372 17.5C69.5653 17.52 69.762 17.5367 69.962 17.55C70.162 17.5633 70.3553 17.57 70.542 17.57C70.9486 17.57 71.3053 17.5033 71.612 17.37C71.9253 17.2367 72.1953 17.06 72.422 16.84C72.6486 16.6133 72.8353 16.35 72.982 16.05C73.1353 15.7433 73.2586 15.4233 73.352 15.09C73.4453 14.75 73.5086 14.4 73.542 14.04C73.582 13.68 73.602 13.33 73.602 12.99C73.602 12.3233 73.5386 11.7633 73.412 11.31C73.2853 10.8567 73.112 10.49 72.892 10.21C72.6786 9.93 72.4286 9.73 72.142 9.61C71.862 9.49 71.5653 9.43 71.252 9.43C70.7253 9.43 70.222 9.53333 69.742 9.74C69.262 9.94 68.8153 10.21 68.402 10.55V17.29ZM66.502 4.8L66.302 3L68.402 2.8V9.26L69.252 8.35C69.592 8.19 69.9486 8.06333 70.322 7.97C70.6953 7.87667 71.0686 7.83 71.442 7.83C71.9953 7.83 72.5153 7.94333 73.002 8.17C73.4953 8.39667 73.9253 8.73333 74.292 9.18C74.6653 9.62 74.9586 10.1633 75.172 10.81C75.392 11.4567 75.502 12.2 75.502 13.04C75.502 13.96 75.3753 14.7967 75.122 15.55C74.8753 16.3033 74.5253 16.95 74.072 17.49C73.6253 18.0233 73.092 18.4367 72.472 18.73C71.8586 19.0233 71.1853 19.17 70.452 19.17C70.032 19.17 69.6186 19.1533 69.212 19.12C68.8053 19.0933 68.4253 19.0533 68.072 19C67.7186 18.9533 67.4053 18.9 67.132 18.84C66.8586 18.7733 66.6486 18.71 66.502 18.65V4.8Z" fill="#161524"/>
<path d="M45.1113 30C20.2099 30 0 50.1898 0 75.1113C0 95.0405 12.9319 111.942 30.8562 117.917C33.1017 118.338 33.9438 116.935 33.9438 115.752C33.9438 114.669 33.9037 111.12 33.8836 107.351C21.3326 110.078 18.6861 102.038 18.6861 102.038C16.6411 96.8249 13.6737 95.4415 13.6737 95.4415C9.58365 92.6346 13.9745 92.6947 13.9745 92.6947C18.5057 93.0155 20.8916 97.3462 20.8916 97.3462C24.9215 104.243 31.4376 102.238 34.024 101.095C34.425 98.1883 35.5878 96.1834 36.891 95.0606C26.8663 93.9178 16.3403 90.0482 16.3403 72.7656C16.3403 67.8334 18.1047 63.8235 20.9918 60.6557C20.5307 59.5129 18.9869 54.9416 21.4329 48.7262C21.4329 48.7262 25.2222 47.5233 33.8435 53.3577C37.4324 52.3552 41.3019 51.8539 45.1314 51.8339C48.9608 51.8539 52.8304 52.3552 56.4393 53.3577C65.0405 47.5233 68.8299 48.7262 68.8299 48.7262C71.2759 54.9416 69.7521 59.5329 69.271 60.6557C72.1581 63.8034 73.9024 67.8334 73.9024 72.7656C73.9024 90.0883 63.3564 93.8977 53.3116 95.0205C54.9356 96.4239 56.3791 99.1707 56.3791 103.381C56.3791 109.416 56.319 114.268 56.319 115.752C56.319 116.955 57.121 118.358 59.4267 117.917C77.3108 111.922 90.2227 95.0205 90.2227 75.0913C90.2227 50.1898 70.0328 29.98 45.1113 30Z" fill="#161524"/>
</svg>
