<svg width="104" height="122" viewBox="0 0 104 122" fill="none" xmlns="http://www.w3.org/2000/svg">
<path d="M30.492 12.9956V19.1356H28.392V6.23556L28.042 4.23556C28.262 4.20889 28.5253 4.18223 28.832 4.15556C29.1453 4.12889 29.4687 4.10556 29.802 4.08556C30.142 4.06556 30.482 4.04889 30.822 4.03556C31.162 4.02222 31.4753 4.01556 31.762 4.01556C32.602 4.01556 33.3687 4.10556 34.062 4.28556C34.7553 4.45889 35.3487 4.71889 35.842 5.06556C36.3353 5.41223 36.7187 5.84556 36.992 6.36556C37.2653 6.87889 37.402 7.47223 37.402 8.14556C37.402 8.84556 37.292 9.46223 37.072 9.99556C36.8587 10.5289 36.5553 10.9856 36.162 11.3656C35.7687 11.7389 35.2987 12.0456 34.752 12.2856C34.212 12.5189 33.6187 12.6922 32.972 12.8056L34.392 13.2056L38.822 19.1356H36.592L32.162 13.1856C32.0887 13.0922 32.0053 13.0389 31.912 13.0256C31.8187 13.0056 31.7453 12.9956 31.692 12.9956H30.492ZM30.492 7.66556V11.4856H31.972C32.5787 11.4856 33.1053 11.4022 33.552 11.2356C33.9987 11.0622 34.3687 10.8322 34.662 10.5456C34.9553 10.2522 35.1753 9.91556 35.322 9.53556C35.4687 9.14889 35.542 8.73889 35.542 8.30556C35.542 7.73889 35.4353 7.26889 35.222 6.89556C35.0087 6.51556 34.732 6.21556 34.392 5.99556C34.052 5.76889 33.672 5.61223 33.252 5.52556C32.832 5.43222 32.4187 5.38556 32.012 5.38556C31.872 5.38556 31.7253 5.38889 31.572 5.39556C31.4187 5.39556 31.2653 5.39889 31.112 5.40556C30.9587 5.41223 30.8087 5.42556 30.662 5.44556C30.522 5.45889 30.3987 5.47556 30.292 5.49556L30.492 7.66556ZM49.1598 17.8456C48.9531 18.0589 48.7265 18.2556 48.4798 18.4356C48.2331 18.6156 47.9598 18.7722 47.6598 18.9056C47.3598 19.0322 47.0265 19.1289 46.6598 19.1956C46.2998 19.2689 45.8965 19.3056 45.4498 19.3056C44.5631 19.3056 43.8065 19.1489 43.1798 18.8356C42.5531 18.5222 42.0398 18.1022 41.6398 17.5756C41.2465 17.0489 40.9565 16.4456 40.7698 15.7656C40.5898 15.0856 40.4998 14.3756 40.4998 13.6356C40.4998 13.1622 40.5431 12.6956 40.6298 12.2356C40.7165 11.7689 40.8465 11.3256 41.0198 10.9056C41.1931 10.4856 41.4098 10.0956 41.6698 9.73556C41.9298 9.37556 42.2331 9.06556 42.5798 8.80556C42.9265 8.54556 43.3165 8.34223 43.7498 8.19556C44.1898 8.04222 44.6731 7.96556 45.1998 7.96556C45.9198 7.96556 46.5431 8.08223 47.0698 8.31556C47.5965 8.54889 48.0331 8.87556 48.3798 9.29556C48.7265 9.71556 48.9831 10.2189 49.1498 10.8056C49.3165 11.3922 49.3998 12.0422 49.3998 12.7556C49.3998 12.9622 49.3931 13.1889 49.3798 13.4356C49.3665 13.6822 49.3465 13.9156 49.3198 14.1356H42.3998C42.3998 14.6356 42.4665 15.1022 42.5998 15.5356C42.7398 15.9689 42.9331 16.3489 43.1798 16.6756C43.4265 16.9956 43.7231 17.2489 44.0698 17.4356C44.4231 17.6156 44.8165 17.7056 45.2498 17.7056C45.6765 17.7056 46.0465 17.6756 46.3598 17.6156C46.6798 17.5489 46.9531 17.4722 47.1798 17.3856C47.4065 17.2922 47.5898 17.1989 47.7298 17.1056C47.8765 17.0122 47.9898 16.9389 48.0698 16.8856L49.1598 17.8456ZM47.4998 12.6356C47.5065 12.5622 47.5098 12.4889 47.5098 12.4156C47.5165 12.3422 47.5198 12.2689 47.5198 12.1956C47.5198 11.8156 47.4765 11.4656 47.3898 11.1456C47.3031 10.8256 47.1698 10.5489 46.9898 10.3156C46.8165 10.0756 46.5931 9.88889 46.3198 9.75556C46.0465 9.62223 45.7231 9.55556 45.3498 9.55556C44.9031 9.55556 44.5198 9.62889 44.1998 9.77556C43.8865 9.91556 43.6198 10.0989 43.3998 10.3256C43.1865 10.5456 43.0131 10.7889 42.8798 11.0556C42.7531 11.3222 42.6565 11.5756 42.5898 11.8156L42.0698 12.9056L43.8498 12.6356H47.4998ZM59.6959 19.1356H57.5959V17.5156L56.6559 18.6356C56.5426 18.7222 56.4126 18.8056 56.2659 18.8856C56.1192 18.9656 55.9692 19.0389 55.8159 19.1056C55.6692 19.1656 55.5192 19.2122 55.3659 19.2456C55.2192 19.2856 55.0826 19.3056 54.9559 19.3056C54.4559 19.3056 53.9759 19.2289 53.5159 19.0756C53.0626 18.9156 52.6626 18.6856 52.3159 18.3856C51.9759 18.0789 51.7026 17.7022 51.4959 17.2556C51.2959 16.8022 51.1959 16.2822 51.1959 15.6956C51.1959 15.0756 51.3192 14.5389 51.5659 14.0856C51.8192 13.6256 52.1392 13.2456 52.5259 12.9456C52.9192 12.6389 53.3559 12.4122 53.8359 12.2656C54.3159 12.1122 54.7859 12.0356 55.2459 12.0356C55.6259 12.0356 55.9592 12.0556 56.2459 12.0956C56.5392 12.1356 56.7859 12.1822 56.9859 12.2356C57.2192 12.2956 57.4226 12.3622 57.5959 12.4356V12.0856C57.5959 11.6922 57.5726 11.3389 57.5259 11.0256C57.4792 10.7122 57.3826 10.4489 57.2359 10.2356C57.0959 10.0156 56.8892 9.84889 56.6159 9.73556C56.3492 9.62223 55.9926 9.56556 55.5459 9.56556C55.1859 9.56556 54.8392 9.59223 54.5059 9.64556C54.1726 9.69223 53.8759 9.74556 53.6159 9.80556C53.3092 9.87889 53.0259 9.95556 52.7659 10.0356L52.0459 8.69556C52.3392 8.56223 52.6726 8.44223 53.0459 8.33556C53.3659 8.24222 53.7459 8.15889 54.1859 8.08556C54.6259 8.00556 55.1126 7.96556 55.6459 7.96556C56.4126 7.96556 57.0459 8.06889 57.5459 8.27556C58.0459 8.48223 58.4392 8.77223 58.7259 9.14556C59.0126 9.51889 59.2126 9.96889 59.3259 10.4956C59.4392 11.0156 59.4959 11.5956 59.4959 12.2356V17.3356L59.6959 19.1356ZM57.5959 13.8056C57.4092 13.7789 57.2092 13.7522 56.9959 13.7256C56.8159 13.7056 56.6092 13.6856 56.3759 13.6656C56.1426 13.6456 55.8992 13.6356 55.6459 13.6356C55.2726 13.6356 54.9292 13.6722 54.6159 13.7456C54.3092 13.8189 54.0426 13.9389 53.8159 14.1056C53.5892 14.2656 53.4126 14.4756 53.2859 14.7356C53.1592 14.9956 53.0959 15.3122 53.0959 15.6856C53.0959 15.9856 53.1459 16.2589 53.2459 16.5056C53.3459 16.7522 53.4826 16.9656 53.6559 17.1456C53.8292 17.3256 54.0326 17.4656 54.2659 17.5656C54.5059 17.6589 54.7626 17.7056 55.0359 17.7056C55.1626 17.7056 55.2959 17.6889 55.4359 17.6556C55.5826 17.6156 55.7259 17.5656 55.8659 17.5056C56.0126 17.4456 56.1559 17.3756 56.2959 17.2956C56.4426 17.2156 56.5792 17.1356 56.7059 17.0556C57.0059 16.8622 57.3026 16.6422 57.5959 16.3956V13.8056ZM69.0737 10.3556C68.8137 10.1222 68.5037 9.93223 68.1437 9.78556C67.7904 9.63889 67.4237 9.56556 67.0437 9.56556C66.4837 9.56556 66.007 9.67223 65.6137 9.88556C65.2204 10.0922 64.9004 10.3756 64.6537 10.7356C64.4137 11.0956 64.237 11.5156 64.1237 11.9956C64.0104 12.4689 63.9537 12.9689 63.9537 13.4956C63.9537 14.0422 64.0037 14.5656 64.1037 15.0656C64.2104 15.5589 64.387 15.9956 64.6337 16.3756C64.8804 16.7556 65.207 17.0589 65.6137 17.2856C66.027 17.5056 66.5404 17.6156 67.1537 17.6156C67.667 17.6156 68.1004 17.5556 68.4537 17.4356C68.8137 17.3156 69.0904 17.1889 69.2837 17.0556L70.0037 18.4656C69.6304 18.7189 69.1937 18.9222 68.6937 19.0756C68.2004 19.2289 67.6404 19.3056 67.0137 19.3056C66.1804 19.3056 65.4504 19.1422 64.8237 18.8156C64.197 18.4822 63.6737 18.0422 63.2537 17.4956C62.8404 16.9422 62.527 16.3089 62.3137 15.5956C62.107 14.8756 62.0037 14.1322 62.0037 13.3656C62.0037 12.6722 62.1037 12.0022 62.3037 11.3556C62.5104 10.7022 62.8204 10.1256 63.2337 9.62556C63.6537 9.12556 64.1804 8.72556 64.8137 8.42556C65.4537 8.11889 66.2037 7.96556 67.0637 7.96556C67.677 7.96556 68.2237 8.06222 68.7037 8.25556C69.1904 8.44223 69.6437 8.76556 70.0637 9.22556L69.0737 10.3556ZM74.9037 15.3756C74.9037 15.8156 74.927 16.1856 74.9737 16.4856C75.027 16.7789 75.1004 17.0189 75.1937 17.2056C75.2937 17.3856 75.4137 17.5156 75.5537 17.5956C75.7004 17.6689 75.867 17.7056 76.0537 17.7056C76.2004 17.7056 76.3337 17.6989 76.4537 17.6856C76.5737 17.6656 76.677 17.6422 76.7637 17.6156C76.8637 17.5889 76.9537 17.5589 77.0337 17.5256L77.7237 18.7356C77.6704 18.7889 77.5837 18.8489 77.4637 18.9156C77.3504 18.9756 77.2137 19.0356 77.0537 19.0956C76.8937 19.1556 76.7104 19.2056 76.5037 19.2456C76.3037 19.2856 76.087 19.3056 75.8537 19.3056C75.2537 19.3056 74.767 19.1956 74.3937 18.9756C74.0204 18.7556 73.7304 18.4556 73.5237 18.0756C73.317 17.6956 73.177 17.2556 73.1037 16.7556C73.037 16.2489 73.0037 15.7089 73.0037 15.1356V9.73556H71.5037V8.13556H73.0037V6.04556L74.8537 4.93556V8.13556H78.2537L78.0537 9.73556H74.9037V15.3756Z" fill="#161524"/>
<g clip-path="url(#clip0_1_62)">
<path d="M85.5924 57.6162C84.4909 57.2811 83.3815 56.969 82.2642 56.68C82.4494 56.0085 82.6203 55.3331 82.7769 54.654C85.2973 43.7373 83.6493 34.9425 78.0246 32.0474C72.6391 29.2693 63.8068 32.1644 54.8969 39.0866C54.0209 39.7696 53.1628 40.4731 52.3226 41.1971C51.7625 40.7161 51.1881 40.2454 50.5993 39.785C41.2607 32.3831 31.9006 29.2654 26.2824 32.1702C20.8969 34.954 19.2963 43.2212 21.5647 53.568C21.7916 54.5913 22.0465 55.6101 22.3294 56.6243C21.042 56.9494 19.7655 57.3077 18.5014 57.6987C7.56657 61.1042 0.573967 66.4436 0.573967 71.9806C0.573967 77.7018 8.07927 83.4384 19.4816 86.9168C20.4064 87.1969 21.3399 87.4572 22.282 87.6976C21.9761 88.7835 21.7054 89.8816 21.4699 90.9918C19.3157 101.16 20.996 109.232 26.3708 111.998C31.9222 114.855 41.2349 111.92 50.3128 104.84C51.0308 104.28 51.7489 103.688 52.467 103.065C53.3746 103.847 54.3081 104.605 55.2675 105.341C64.0567 112.09 72.736 114.817 78.1022 112.042C83.6493 109.176 85.4524 100.504 83.1108 89.9539C82.9312 89.1481 82.7244 88.3256 82.4903 87.4866C83.1452 87.3139 83.7865 87.1355 84.4141 86.9513C96.2623 83.446 103.981 77.7786 103.981 71.9864C103.977 66.4225 96.7599 61.0486 85.5924 57.6162ZM57.803 42.0604C65.4354 36.1301 72.5702 33.7894 75.823 35.4624C79.2849 37.2448 80.6312 44.4318 78.4555 53.8578C78.3119 54.4717 78.1568 55.0837 77.9902 55.6938C73.4353 54.7711 68.8165 54.1199 64.1644 53.7446C61.5008 50.3273 58.5809 47.0743 55.4247 44.0078C56.1974 43.3401 56.9887 42.691 57.7987 42.0604H57.803ZM31.1057 76.7118C32.0407 78.3234 33.018 79.9152 34.0376 81.4872C35.076 83.0911 36.1581 84.6714 37.284 86.228C34.083 85.918 30.902 85.4614 27.7538 84.86C28.6672 82.2277 29.7917 79.4938 31.1057 76.7118ZM31.1057 67.4394C29.8132 64.7169 28.7189 62.0386 27.8205 59.4523C30.7718 58.8633 33.917 58.3818 37.1957 58.0172C36.0971 59.5444 35.0401 61.094 34.0247 62.6659C33.0093 64.2379 32.0342 65.829 31.0993 67.4394H31.1057ZM33.4538 72.0766C34.8153 69.5479 36.2816 67.0678 37.8527 64.6363C39.4225 62.2061 41.0934 59.8316 42.8656 57.5126C45.9418 57.3054 49.0956 57.1961 52.2817 57.1961C55.4678 57.1961 58.641 57.3054 61.715 57.5146C63.4686 59.8284 65.1295 62.1946 66.6978 64.6133C68.266 67.032 69.7517 69.5005 71.1548 72.019C69.7704 74.5566 68.2883 77.047 66.7085 79.4899C65.1417 81.9201 63.4901 84.3017 61.7538 86.6347C58.6841 86.8266 55.5066 86.9321 52.2753 86.9321C49.0439 86.9321 45.9268 86.8419 42.913 86.6673C41.1279 84.3407 39.4433 81.9559 37.8592 79.513C36.2751 77.07 34.8045 74.5912 33.4474 72.0766H33.4538ZM70.5323 81.4603C71.5735 79.8513 72.573 78.2211 73.5309 76.5699C74.8441 79.2215 76.0031 81.9316 77.0035 84.6893C73.8182 85.3281 70.5976 85.818 67.3548 86.157C68.4491 84.6106 69.5083 83.0451 70.5323 81.4603ZM73.4879 67.4413C72.5343 65.8233 71.5426 64.2245 70.5129 62.6448C69.5076 61.0869 68.4599 59.5482 67.3699 58.0287C70.668 58.4009 73.8325 58.8959 76.7989 59.5003C75.8452 62.195 74.7401 64.8453 73.4879 67.4413ZM52.3248 46.8262C54.4759 48.9195 56.507 51.1082 58.4105 53.3839C54.339 53.2112 50.2646 53.2112 46.1874 53.3839C48.1973 51.0163 50.2546 48.8196 52.3248 46.8262ZM28.5056 35.5795C31.9653 33.7914 39.6149 36.3469 47.6781 42.73C48.193 43.1387 48.7122 43.5665 49.2292 44.0097C46.0568 47.0758 43.1163 50.326 40.427 53.7388C35.7852 54.1113 31.1755 54.7522 26.6271 55.6574C26.3643 54.716 26.1273 53.7682 25.9162 52.814C23.9666 43.9445 25.257 37.2582 28.5056 35.5795ZM23.4626 83.8988C22.6009 83.6801 21.75 83.4428 20.9098 83.187C15.8689 81.6522 11.7048 79.6492 8.84617 77.4678C6.28696 75.5127 4.99012 73.5615 4.99012 71.9806C4.99012 68.6212 10.604 64.3351 19.9663 61.4285C21.1425 61.0639 22.3287 60.7307 23.525 60.4289C24.9155 64.4086 26.5994 68.3022 28.5659 72.0842C26.576 75.9186 24.8712 79.8653 23.4626 83.8988ZM47.4024 101.87C43.3891 105.001 39.3693 107.221 35.8256 108.34C32.6417 109.343 30.1062 109.372 28.5745 108.583C25.313 106.904 23.9559 100.422 25.8063 91.7266C26.0261 90.7034 26.2774 89.6801 26.5603 88.6569C31.1543 89.5382 35.8103 90.1402 40.496 90.4584C43.2115 93.889 46.1763 97.1576 49.3714 100.243C48.7294 100.805 48.0724 101.346 47.4024 101.87ZM52.4476 97.4152C50.3537 95.3988 48.2641 93.1675 46.2262 90.7693C48.2066 90.8383 50.223 90.8729 52.2753 90.8729C54.3821 90.8729 56.4674 90.8326 58.5225 90.7501C56.626 93.0622 54.5984 95.2868 52.4476 97.4152ZM79.2719 102.9C78.6558 105.863 77.4172 107.839 75.8855 108.629C72.6262 110.314 65.6573 108.125 58.1433 102.352C57.2817 101.692 56.42 100.984 55.5432 100.241C58.6761 97.1437 61.5714 93.8619 64.2096 90.4182C68.9213 90.0626 73.5999 89.4184 78.2121 88.49C78.4232 89.2497 78.6099 89.9941 78.7722 90.7232C79.8083 95.3853 79.957 99.6024 79.2719 102.9ZM83.0203 83.2081C82.4559 83.3751 81.8742 83.5362 81.284 83.6935C79.8378 79.6951 78.0881 75.7888 76.0471 72.0017C78.0115 68.2651 79.6927 64.4155 81.0793 60.4788C82.137 60.7531 83.1646 61.0409 84.1534 61.346C93.7225 64.2852 99.5604 68.6365 99.5604 71.9806C99.5604 75.5492 93.255 80.1806 83.0203 83.2081Z" fill="#161524"/>
<path d="M52.2774 83.5031C53.9962 83.5081 55.6781 83.0582 57.11 82.2104C58.5419 81.3626 59.6594 80.155 60.321 78.7405C60.9827 77.3261 61.1587 75.7684 60.8268 74.2646C60.4949 72.7609 59.67 71.3788 58.4566 70.2934C57.2432 69.2079 55.6958 68.468 54.0104 68.1671C52.325 67.8663 50.5774 68.0182 48.9888 68.6035C47.4003 69.1888 46.0422 70.1813 45.0867 71.4552C44.1312 72.7291 43.6211 74.2272 43.6211 75.7598C43.6187 76.7751 43.8408 77.7809 44.2746 78.7197C44.7084 79.6585 45.3455 80.5118 46.1494 81.231C46.9534 81.9501 47.9084 82.5209 48.9598 82.9108C50.0113 83.3006 51.1386 83.5019 52.2774 83.5031Z" fill="#161524"/>
</g>
<defs>
<clipPath id="clip0_1_62">
<rect width="103.407" height="92.1996" fill="white" transform="translate(0.573967 29.741)"/>
</clipPath>
</defs>
</svg>
