<svg width="40" height="30" viewBox="0 0 40 30" fill="none" xmlns="http://www.w3.org/2000/svg">
<path d="M33.3813 2.53372C37.8279 9.07152 40.0239 16.446 39.203 24.9357C39.1995 24.9716 39.1808 25.0046 39.1513 25.0262C35.784 27.4988 32.5215 28.9994 29.3048 29.9945C29.2797 30.0021 29.2529 30.0017 29.2281 29.9933C29.2033 29.9849 29.1818 29.969 29.1665 29.9478C28.4233 28.9138 27.7481 27.8236 27.1565 26.6789C27.1225 26.6114 27.1535 26.5302 27.2234 26.5037C28.2958 26.0996 29.3156 25.6153 30.2965 25.042C30.3737 24.9967 30.3786 24.8859 30.3073 24.8328C30.0991 24.6783 29.8929 24.5158 29.6955 24.3534C29.6586 24.3234 29.6089 24.3175 29.5671 24.3377C23.1991 27.2783 16.2233 27.2783 9.77997 24.3377C9.73813 24.319 9.68843 24.3254 9.6525 24.3549C9.45564 24.5173 9.24893 24.6783 9.04272 24.8328C8.97136 24.8859 8.97726 24.9967 9.05502 25.042C10.0359 25.6045 11.0556 26.0996 12.1266 26.5056C12.196 26.5322 12.2289 26.6114 12.1945 26.6789C11.6157 27.8251 10.9405 28.9152 10.1835 29.9492C10.1506 29.9911 10.0964 30.0103 10.0452 29.9945C6.84377 28.9994 3.58127 27.4988 0.213941 25.0262C0.185889 25.0046 0.16571 24.9701 0.162757 24.9342C-0.523308 17.5907 0.874906 10.1552 5.97905 2.53225C5.99135 2.51207 6.01006 2.49632 6.03171 2.48697C8.54318 1.33434 11.2338 0.486356 14.046 0.00207469C14.0972 -0.0057998 14.1483 0.0178237 14.1749 0.063102C14.5224 0.678296 14.9195 1.46722 15.1883 2.11195C18.1525 1.65916 21.163 1.65916 24.1893 2.11195C24.458 1.481 24.8414 0.678296 25.1874 0.063102C25.1997 0.0406399 25.2188 0.0226445 25.242 0.0116849C25.2651 0.000725298 25.2911 -0.00263817 25.3163 0.00207469C28.13 0.487832 30.8206 1.33582 33.3301 2.48697C33.3522 2.49632 33.3705 2.51207 33.3813 2.53372ZM16.6952 16.4962C16.7263 14.3253 15.1435 12.5289 13.1566 12.5289C11.1861 12.5289 9.61854 14.3095 9.61854 16.4962C9.61854 18.6823 11.2171 20.4629 13.1566 20.4629C15.1277 20.4629 16.6952 18.6823 16.6952 16.4962ZM29.7777 16.4962C29.8087 14.3253 28.226 12.5289 26.2396 12.5289C24.2685 12.5289 22.701 14.3095 22.701 16.4962C22.701 18.6823 24.2995 20.4629 26.2396 20.4629C28.226 20.4629 29.7777 18.6823 29.7777 16.4962Z" fill="#F5F5F5"/>
</svg>
