<svg width="89" height="116" viewBox="0 0 89 116" fill="none" xmlns="http://www.w3.org/2000/svg">
<path d="M19.7857 19.1356V11.8856H13.4857V19.1356H11.4357V6.23556L11.1457 4.13556L13.4857 3.93556V10.2856H19.7857V4.11556L21.8357 3.93556V19.1356H19.7857ZM28.5896 19.1356V5.73556H24.4396V4.13556H34.7896V5.73556H30.6896V19.1356H28.5896ZM49.6318 19.1356V9.13556L50.0718 5.93556L50.0218 5.92556L49.0118 8.93556L44.8618 17.8356H44.1718L40.4818 9.93556L39.1618 5.92556L39.1018 5.93556L39.6318 10.1256V19.1356H37.6318V6.23556L37.3518 4.13556L39.6918 3.93556L44.0818 13.3356L44.6318 15.9356L45.1818 13.3356L49.4718 4.13556L51.7318 3.93556V19.1356H49.6318ZM57.5396 17.5356H64.0396L63.8396 19.1356H55.3396L55.5396 17.1356V6.23556L55.2396 4.13556L57.6396 3.93556V15.7356L57.5396 17.5356ZM68.7157 9.31556C68.7623 9.28889 68.8423 9.24556 68.9557 9.18556C69.0757 9.12556 69.2223 9.06556 69.3957 9.00556C69.569 8.94556 69.7657 8.89556 69.9857 8.85556C70.2123 8.80889 70.4623 8.78556 70.7357 8.78556C71.429 8.78556 72.0457 8.89556 72.5857 9.11556C73.1323 9.32889 73.5923 9.62556 73.9657 10.0056C74.3457 10.3789 74.6323 10.8189 74.8257 11.3256C75.0257 11.8322 75.1257 12.3722 75.1257 12.9456C75.1257 13.6189 75.0057 14.2422 74.7657 14.8156C74.5257 15.3822 74.1957 15.8956 73.7757 16.3556C73.3623 16.8089 72.8757 17.2089 72.3157 17.5556C71.7623 17.9022 71.169 18.1956 70.5357 18.4356C69.909 18.6689 69.2623 18.8456 68.5957 18.9656C67.929 19.0789 67.2757 19.1356 66.6357 19.1356V17.5356C67.1357 17.5222 67.6423 17.4622 68.1557 17.3556C68.669 17.2422 69.1623 17.0956 69.6357 16.9156C70.1157 16.7289 70.5623 16.5056 70.9757 16.2456C71.3957 15.9856 71.759 15.6989 72.0657 15.3856C72.379 15.0656 72.6257 14.7189 72.8057 14.3456C72.9857 13.9722 73.0757 13.5756 73.0757 13.1556C73.0757 12.8156 73.019 12.4856 72.9057 12.1656C72.799 11.8456 72.6357 11.5622 72.4157 11.3156C72.2023 11.0622 71.9323 10.8589 71.6057 10.7056C71.279 10.5522 70.899 10.4756 70.4657 10.4756C70.1257 10.4756 69.819 10.4989 69.5457 10.5456C69.2723 10.5856 69.0257 10.6389 68.8057 10.7056C68.5923 10.7656 68.409 10.8356 68.2557 10.9156C68.1023 10.9956 67.9757 11.0689 67.8757 11.1356H66.6357V4.13556H74.1657V5.73556H68.7157V9.31556Z" fill="#161524"/>
<g clip-path="url(#clip0_1_49)">
<path d="M5.88184 30.5143L13.3745 106.71L47.0055 115.174L80.7224 106.698L88.2279 30.5143H5.88184ZM71.9302 55.4586H32.4727L33.3305 65.0962H71.0724L68.1753 93.7046L47.0549 99.0128L25.8936 93.7216L24.4397 79.0801H34.7887L35.5221 86.5048L47.0549 89.2978L58.5104 86.4783L59.707 74.3558H23.895L21.1952 46.0875H72.8309L71.9302 55.4586Z" fill="#161524"/>
</g>
<defs>
<clipPath id="clip0_1_49">
<rect width="88.2279" height="78.6658" fill="white" transform="translate(0 36.5079)"/>
</clipPath>
</defs>
</svg>
