<svg width="115" height="122" viewBox="0 0 115 122" fill="none" xmlns="http://www.w3.org/2000/svg">
<path d="M15.2402 7.53V10.15H16.3402C16.7736 10.15 17.1936 10.1033 17.6002 10.01C18.0069 9.91 18.3669 9.75667 18.6802 9.55C19.0002 9.33667 19.2569 9.06333 19.4502 8.73C19.6436 8.39667 19.7402 7.99333 19.7402 7.52C19.7402 7.08 19.6469 6.71333 19.4602 6.42C19.2736 6.12667 19.0269 5.89333 18.7202 5.72C18.4202 5.54667 18.0802 5.42667 17.7002 5.36C17.3202 5.28667 16.9402 5.25 16.5602 5.25C16.4469 5.25 16.3236 5.25333 16.1902 5.26C16.0569 5.26667 15.9202 5.28 15.7802 5.3C15.6469 5.31333 15.5136 5.33 15.3802 5.35C15.2536 5.37 15.1402 5.39 15.0402 5.41L15.2402 7.53ZM13.1402 19V6.1L12.8402 4.1C13.0402 4.07333 13.2702 4.04667 13.5302 4.02C13.7969 3.99333 14.0702 3.97333 14.3502 3.96C14.6302 3.94 14.9069 3.92667 15.1802 3.92C15.4536 3.90667 15.6969 3.9 15.9102 3.9C16.6502 3.9 17.3636 3.95 18.0502 4.05C18.7436 4.14333 19.3569 4.31667 19.8902 4.57C20.4236 4.82333 20.8502 5.17333 21.1702 5.62C21.4902 6.06 21.6502 6.62333 21.6502 7.31C21.6502 8.03667 21.4736 8.66333 21.1202 9.19C20.7736 9.71667 20.3136 10.12 19.7402 10.4L18.2002 10.84L19.6702 10.98C20.0769 11.1 20.4602 11.2567 20.8202 11.45C21.1869 11.6367 21.5069 11.8667 21.7802 12.14C22.0536 12.4133 22.2669 12.7367 22.4202 13.11C22.5802 13.4833 22.6602 13.9133 22.6602 14.4C22.6602 14.9667 22.5836 15.4733 22.4302 15.92C22.2769 16.3667 22.0702 16.76 21.8102 17.1C21.5502 17.44 21.2436 17.7333 20.8902 17.98C20.5369 18.22 20.1569 18.4167 19.7502 18.57C19.3502 18.7167 18.9336 18.8267 18.5002 18.9C18.0736 18.9667 17.6536 19 17.2402 19H13.1402ZM15.2402 17.4H16.6402C17.3002 17.4 17.8802 17.3533 18.3802 17.26C18.8802 17.16 19.3002 17 19.6402 16.78C19.9802 16.5533 20.2336 16.2567 20.4002 15.89C20.5736 15.5167 20.6602 15.0533 20.6602 14.5C20.6602 14 20.5736 13.5733 20.4002 13.22C20.2269 12.8667 19.9802 12.5767 19.6602 12.35C19.3469 12.1233 18.9669 11.96 18.5202 11.86C18.0736 11.7533 17.5802 11.7 17.0402 11.7H15.2402V17.4ZM30.238 19.17C29.498 19.17 28.8214 19.0267 28.208 18.74C27.6014 18.4467 27.078 18.0467 26.638 17.54C26.198 17.0267 25.8547 16.4233 25.608 15.73C25.368 15.03 25.248 14.2767 25.248 13.47C25.248 12.6633 25.3647 11.9167 25.598 11.23C25.8314 10.5367 26.1647 9.94 26.598 9.44C27.0314 8.93333 27.5547 8.54 28.168 8.26C28.788 7.97333 29.478 7.83 30.238 7.83C30.978 7.83 31.6547 7.97333 32.268 8.26C32.8814 8.54 33.408 8.93333 33.848 9.44C34.288 9.94 34.6314 10.5367 34.878 11.23C35.1247 11.9167 35.248 12.6633 35.248 13.47C35.248 14.2767 35.128 15.03 34.888 15.73C34.6547 16.4233 34.3214 17.0267 33.888 17.54C33.4547 18.0467 32.928 18.4467 32.308 18.74C31.688 19.0267 30.998 19.17 30.238 19.17ZM33.348 13.74C33.348 13.2 33.288 12.67 33.168 12.15C33.0547 11.63 32.8714 11.1667 32.618 10.76C32.3647 10.3467 32.038 10.0133 31.638 9.76C31.238 9.50667 30.758 9.38 30.198 9.38C29.6647 9.38 29.2047 9.49 28.818 9.71C28.4314 9.93 28.1147 10.2233 27.868 10.59C27.6214 10.9567 27.438 11.3733 27.318 11.84C27.2047 12.3067 27.148 12.7867 27.148 13.28C27.148 13.82 27.2047 14.35 27.318 14.87C27.438 15.39 27.6214 15.8533 27.868 16.26C28.1214 16.6667 28.4447 16.9967 28.838 17.25C29.238 17.4967 29.718 17.62 30.278 17.62C30.8047 17.62 31.2614 17.51 31.648 17.29C32.0347 17.07 32.3547 16.78 32.608 16.42C32.8614 16.0533 33.048 15.6367 33.168 15.17C33.288 14.7033 33.348 14.2267 33.348 13.74ZM42.2302 19.17C41.4902 19.17 40.8136 19.0267 40.2002 18.74C39.5936 18.4467 39.0702 18.0467 38.6302 17.54C38.1902 17.0267 37.8469 16.4233 37.6002 15.73C37.3602 15.03 37.2402 14.2767 37.2402 13.47C37.2402 12.6633 37.3569 11.9167 37.5902 11.23C37.8236 10.5367 38.1569 9.94 38.5902 9.44C39.0236 8.93333 39.5469 8.54 40.1602 8.26C40.7802 7.97333 41.4702 7.83 42.2302 7.83C42.9702 7.83 43.6469 7.97333 44.2602 8.26C44.8736 8.54 45.4002 8.93333 45.8402 9.44C46.2802 9.94 46.6236 10.5367 46.8702 11.23C47.1169 11.9167 47.2402 12.6633 47.2402 13.47C47.2402 14.2767 47.1202 15.03 46.8802 15.73C46.6469 16.4233 46.3136 17.0267 45.8802 17.54C45.4469 18.0467 44.9202 18.4467 44.3002 18.74C43.6802 19.0267 42.9902 19.17 42.2302 19.17ZM45.3402 13.74C45.3402 13.2 45.2802 12.67 45.1602 12.15C45.0469 11.63 44.8636 11.1667 44.6102 10.76C44.3569 10.3467 44.0302 10.0133 43.6302 9.76C43.2302 9.50667 42.7502 9.38 42.1902 9.38C41.6569 9.38 41.1969 9.49 40.8102 9.71C40.4236 9.93 40.1069 10.2233 39.8602 10.59C39.6136 10.9567 39.4302 11.3733 39.3102 11.84C39.1969 12.3067 39.1402 12.7867 39.1402 13.28C39.1402 13.82 39.1969 14.35 39.3102 14.87C39.4302 15.39 39.6136 15.8533 39.8602 16.26C40.1136 16.6667 40.4369 16.9967 40.8302 17.25C41.2302 17.4967 41.7102 17.62 42.2702 17.62C42.7969 17.62 43.2536 17.51 43.6402 17.29C44.0269 17.07 44.3469 16.78 44.6002 16.42C44.8536 16.0533 45.0402 15.6367 45.1602 15.17C45.2802 14.7033 45.3402 14.2267 45.3402 13.74ZM52.1324 15.24C52.1324 15.68 52.1558 16.05 52.2024 16.35C52.2558 16.6433 52.3291 16.8833 52.4224 17.07C52.5224 17.25 52.6424 17.38 52.7824 17.46C52.9291 17.5333 53.0958 17.57 53.2824 17.57C53.4291 17.57 53.5624 17.5633 53.6824 17.55C53.8024 17.53 53.9058 17.5067 53.9924 17.48C54.0924 17.4533 54.1824 17.4233 54.2624 17.39L54.9524 18.6C54.8991 18.6533 54.8124 18.7133 54.6924 18.78C54.5791 18.84 54.4424 18.9 54.2824 18.96C54.1224 19.02 53.9391 19.07 53.7324 19.11C53.5324 19.15 53.3158 19.17 53.0824 19.17C52.4824 19.17 51.9958 19.06 51.6224 18.84C51.2491 18.62 50.9591 18.32 50.7524 17.94C50.5458 17.56 50.4058 17.12 50.3324 16.62C50.2658 16.1133 50.2324 15.5733 50.2324 15V9.6H48.7324V8H50.2324V5.91L52.0824 4.8V8H55.4824L55.2824 9.6H52.1324V15.24ZM62.8502 9.81C62.7302 9.75 62.5869 9.69 62.4202 9.63C62.2536 9.57 62.0802 9.51667 61.9002 9.47C61.7202 9.42333 61.5369 9.38667 61.3502 9.36C61.1702 9.33333 60.9969 9.32 60.8302 9.32C60.1236 9.32 59.6236 9.42667 59.3302 9.64C59.0369 9.84667 58.8902 10.16 58.8902 10.58C58.8902 10.86 58.9869 11.0933 59.1802 11.28C59.3736 11.46 59.6236 11.6233 59.9302 11.77C60.2369 11.9167 60.5769 12.0567 60.9502 12.19C61.3302 12.3167 61.7002 12.47 62.0602 12.65C62.3202 12.7767 62.5836 12.9267 62.8502 13.1C63.1169 13.2733 63.3569 13.4767 63.5702 13.71C63.7836 13.9433 63.9569 14.2067 64.0902 14.5C64.2236 14.7933 64.2902 15.1233 64.2902 15.49C64.2902 16.1633 64.1769 16.7333 63.9502 17.2C63.7236 17.6667 63.4136 18.0467 63.0202 18.34C62.6336 18.6267 62.1769 18.8367 61.6502 18.97C61.1302 19.1033 60.5736 19.17 59.9802 19.17C59.7536 19.17 59.4969 19.1467 59.2102 19.1C58.9236 19.06 58.6369 19.0033 58.3502 18.93C58.0636 18.85 57.7902 18.7567 57.5302 18.65C57.2702 18.5433 57.0536 18.43 56.8802 18.31L57.5402 16.99C57.7002 17.07 57.8902 17.1467 58.1102 17.22C58.3302 17.2867 58.5569 17.3467 58.7902 17.4C59.0236 17.4533 59.2536 17.4967 59.4802 17.53C59.7136 17.5567 59.9202 17.57 60.1002 17.57C60.4069 17.57 60.7002 17.54 60.9802 17.48C61.2669 17.4133 61.5169 17.31 61.7302 17.17C61.9502 17.03 62.1236 16.85 62.2502 16.63C62.3836 16.4033 62.4502 16.1267 62.4502 15.8C62.4502 15.5533 62.3969 15.3367 62.2902 15.15C62.1902 14.9633 62.0502 14.8 61.8702 14.66C61.6969 14.5133 61.4936 14.38 61.2602 14.26C61.0269 14.14 60.7802 14.0267 60.5202 13.92C60.2602 13.8067 59.9936 13.6933 59.7202 13.58C59.4469 13.46 59.1869 13.33 58.9402 13.19C58.7069 13.0567 58.4802 12.91 58.2602 12.75C58.0469 12.59 57.8569 12.41 57.6902 12.21C57.5236 12.01 57.3902 11.7867 57.2902 11.54C57.1902 11.2867 57.1402 11 57.1402 10.68C57.1402 10.1733 57.2302 9.74 57.4102 9.38C57.5902 9.01333 57.8436 8.71667 58.1702 8.49C58.4969 8.26333 58.8902 8.09667 59.3502 7.99C59.8102 7.88333 60.3169 7.83 60.8702 7.83C61.1236 7.83 61.3736 7.85 61.6202 7.89C61.8669 7.93 62.1036 7.98333 62.3302 8.05C62.5569 8.11 62.7636 8.18333 62.9502 8.27C63.1369 8.35667 63.2969 8.44333 63.4302 8.53L62.8502 9.81ZM69.1441 15.24C69.1441 15.68 69.1675 16.05 69.2141 16.35C69.2675 16.6433 69.3408 16.8833 69.4341 17.07C69.5341 17.25 69.6541 17.38 69.7941 17.46C69.9408 17.5333 70.1075 17.57 70.2941 17.57C70.4408 17.57 70.5741 17.5633 70.6941 17.55C70.8141 17.53 70.9175 17.5067 71.0041 17.48C71.1041 17.4533 71.1941 17.4233 71.2741 17.39L71.9641 18.6C71.9108 18.6533 71.8241 18.7133 71.7041 18.78C71.5908 18.84 71.4541 18.9 71.2941 18.96C71.1341 19.02 70.9508 19.07 70.7441 19.11C70.5441 19.15 70.3275 19.17 70.0941 19.17C69.4941 19.17 69.0075 19.06 68.6341 18.84C68.2608 18.62 67.9708 18.32 67.7641 17.94C67.5575 17.56 67.4175 17.12 67.3441 16.62C67.2775 16.1133 67.2441 15.5733 67.2441 15V9.6H65.7441V8H67.2441V5.91L69.0941 4.8V8H72.4941L72.2941 9.6H69.1441V15.24ZM79.962 9.52C79.6953 9.52 79.432 9.57333 79.172 9.68C78.912 9.78667 78.662 9.93 78.422 10.11C78.182 10.29 77.9553 10.5 77.742 10.74C77.5286 10.98 77.332 11.2333 77.152 11.5V19H75.252V8L77.152 7.8V10.05L78.152 8.3C78.2386 8.24667 78.3453 8.19333 78.472 8.14C78.6053 8.08 78.7553 8.03 78.922 7.99C79.0886 7.94333 79.2653 7.90667 79.452 7.88C79.6453 7.84667 79.842 7.83 80.042 7.83C80.342 7.83 80.592 7.85667 80.792 7.91C80.9986 7.96333 81.152 8.01333 81.252 8.06L81.152 9.72C81.052 9.68667 80.902 9.64667 80.702 9.6C80.502 9.54667 80.2553 9.52 79.962 9.52ZM90.4598 19H88.3598V17.38L87.4198 18.5C87.3064 18.5867 87.1764 18.67 87.0298 18.75C86.8831 18.83 86.7331 18.9033 86.5798 18.97C86.4331 19.03 86.2831 19.0767 86.1298 19.11C85.9831 19.15 85.8464 19.17 85.7198 19.17C85.2198 19.17 84.7398 19.0933 84.2798 18.94C83.8264 18.78 83.4264 18.55 83.0798 18.25C82.7398 17.9433 82.4664 17.5667 82.2598 17.12C82.0598 16.6667 81.9598 16.1467 81.9598 15.56C81.9598 14.94 82.0831 14.4033 82.3298 13.95C82.5831 13.49 82.9031 13.11 83.2898 12.81C83.6831 12.5033 84.1198 12.2767 84.5998 12.13C85.0798 11.9767 85.5498 11.9 86.0098 11.9C86.3898 11.9 86.7231 11.92 87.0098 11.96C87.3031 12 87.5498 12.0467 87.7498 12.1C87.9831 12.16 88.1864 12.2267 88.3598 12.3V11.95C88.3598 11.5567 88.3364 11.2033 88.2898 10.89C88.2431 10.5767 88.1464 10.3133 87.9998 10.1C87.8598 9.88 87.6531 9.71333 87.3798 9.6C87.1131 9.48667 86.7564 9.43 86.3098 9.43C85.9498 9.43 85.6031 9.45667 85.2698 9.51C84.9364 9.55667 84.6398 9.61 84.3798 9.67C84.0731 9.74333 83.7898 9.82 83.5298 9.9L82.8098 8.56C83.1031 8.42667 83.4364 8.30667 83.8098 8.2C84.1298 8.10667 84.5098 8.02333 84.9498 7.95C85.3898 7.87 85.8764 7.83 86.4098 7.83C87.1764 7.83 87.8098 7.93333 88.3098 8.14C88.8098 8.34667 89.2031 8.63667 89.4898 9.01C89.7764 9.38333 89.9764 9.83333 90.0898 10.36C90.2031 10.88 90.2598 11.46 90.2598 12.1V17.2L90.4598 19ZM88.3598 13.67C88.1731 13.6433 87.9731 13.6167 87.7598 13.59C87.5798 13.57 87.3731 13.55 87.1398 13.53C86.9064 13.51 86.6631 13.5 86.4098 13.5C86.0364 13.5 85.6931 13.5367 85.3798 13.61C85.0731 13.6833 84.8064 13.8033 84.5798 13.97C84.3531 14.13 84.1764 14.34 84.0498 14.6C83.9231 14.86 83.8598 15.1767 83.8598 15.55C83.8598 15.85 83.9098 16.1233 84.0098 16.37C84.1098 16.6167 84.2464 16.83 84.4198 17.01C84.5931 17.19 84.7964 17.33 85.0298 17.43C85.2698 17.5233 85.5264 17.57 85.7998 17.57C85.9264 17.57 86.0598 17.5533 86.1998 17.52C86.3464 17.48 86.4898 17.43 86.6298 17.37C86.7764 17.31 86.9198 17.24 87.0598 17.16C87.2064 17.08 87.3431 17 87.4698 16.92C87.7698 16.7267 88.0664 16.5067 88.3598 16.26V13.67ZM95.6676 17.4H97.3076C97.9209 17.4 98.4509 17.3 98.8976 17.1C99.3509 16.8933 99.7209 16.6067 100.008 16.24C100.301 15.8733 100.518 15.4333 100.658 14.92C100.798 14.4067 100.868 13.84 100.868 13.22C100.868 12.5667 100.804 12.0033 100.678 11.53C100.551 11.05 100.378 10.6567 100.158 10.35C99.9376 10.0367 99.6809 9.80667 99.3876 9.66C99.1009 9.50667 98.7942 9.43 98.4676 9.43C98.1409 9.43 97.8342 9.47333 97.5476 9.56C97.2676 9.64 97.0076 9.74333 96.7676 9.87C96.5342 9.99667 96.3242 10.1367 96.1376 10.29C95.9509 10.4433 95.7942 10.59 95.6676 10.73V17.4ZM93.7676 24V8L95.6676 7.8V9.56L96.6176 8.29C96.8109 8.17667 97.0842 8.07333 97.4376 7.98C97.7976 7.88 98.2376 7.83 98.7576 7.83C99.3109 7.83 99.8309 7.96 100.318 8.22C100.804 8.48 101.228 8.85 101.588 9.33C101.954 9.81 102.241 10.39 102.448 11.07C102.661 11.75 102.768 12.51 102.768 13.35C102.768 14.17 102.634 14.9267 102.368 15.62C102.101 16.3067 101.721 16.9033 101.228 17.41C100.741 17.91 100.148 18.3 99.4476 18.58C98.7542 18.86 97.9776 19 97.1176 19H95.6676V24H93.7676Z" fill="#161524"/>
<path d="M56.3979 72.8887H47.7058V58.4342H58.0175C63.6237 58.4342 66.8054 60.9178 66.8054 65.4093C66.8054 70.2053 63.1015 72.8887 56.3883 72.8887H56.3979ZM57.9504 78.6268H47.7106V94.5563H58.4008C65.3919 94.5563 69.0958 91.7729 69.0958 86.5392C69.0958 81.3055 65.2865 78.6268 57.9504 78.6268ZM115 73.6024V79.3976C109.595 79.9114 106.294 83.8891 104.334 90.1885C102.384 96.4642 102.115 104.163 102.321 110.105C102.537 116.29 97.6829 122 91.1231 122H23.8865C17.3219 122 12.4679 116.29 12.6883 110.105C12.8944 104.163 12.626 96.4642 10.6758 90.1885C8.71125 83.8891 5.405 79.9114 0 79.3976V73.6024C5.405 73.0886 8.71604 69.1109 10.671 62.8115C12.626 56.5358 12.8944 48.8374 12.6835 42.8948C12.4679 36.7095 17.3219 31 23.8865 31H91.1231C97.6877 31 102.537 36.7095 102.321 42.8948C102.115 48.8374 102.384 56.5358 104.334 62.8115C106.294 69.1109 109.595 73.0886 115 73.6024ZM77.0165 87.0055C77.0165 80.5633 72.45 75.9053 65.6698 75.1678V74.8966C70.6531 74.0925 74.5631 69.4963 74.5631 64.3673C74.5631 57.0544 68.7508 52.2917 59.891 52.2917H39.9577V100.689H59.9917C70.6196 100.689 77.0165 95.5222 77.0165 87.0055Z" fill="#161524"/>
</svg>
