<svg width="92" height="118" viewBox="0 0 92 118" fill="none" xmlns="http://www.w3.org/2000/svg">
<path d="M44.4941 17.03C44.2208 17.33 43.9141 17.6133 43.5741 17.88C43.2341 18.14 42.8608 18.3667 42.4541 18.56C42.0475 18.7467 41.6041 18.8933 41.1241 19C40.6441 19.1133 40.1275 19.17 39.5741 19.17C38.6141 19.17 37.7508 18.9633 36.9841 18.55C36.2175 18.13 35.5641 17.5633 35.0241 16.85C34.4908 16.1367 34.0808 15.3033 33.7941 14.35C33.5141 13.3967 33.3741 12.38 33.3741 11.3C33.3741 10.2933 33.5008 9.34 33.7541 8.44C34.0141 7.53333 34.4075 6.74 34.9341 6.06C35.4675 5.37333 36.1375 4.83 36.9441 4.43C37.7508 4.03 38.7041 3.83 39.8041 3.83C40.5708 3.83 41.2941 3.95333 41.9741 4.2C42.6608 4.44 43.2441 4.79 43.7241 5.25L42.8241 6.32C42.5041 6.10667 42.1008 5.92 41.6141 5.76C41.1341 5.6 40.5841 5.52 39.9641 5.52C39.1508 5.52 38.4608 5.67333 37.8941 5.98C37.3275 6.28667 36.8641 6.70333 36.5041 7.23C36.1441 7.75 35.8808 8.36 35.7141 9.06C35.5541 9.75333 35.4741 10.49 35.4741 11.27C35.4741 11.73 35.5108 12.2033 35.5841 12.69C35.6575 13.17 35.7675 13.64 35.9141 14.1C36.0675 14.56 36.2608 14.9933 36.4941 15.4C36.7341 15.8067 37.0141 16.1633 37.3341 16.47C37.6608 16.7767 38.0308 17.02 38.4441 17.2C38.8575 17.38 39.3208 17.47 39.8341 17.47C40.1341 17.47 40.4241 17.44 40.7041 17.38C40.9841 17.3133 41.2441 17.23 41.4841 17.13C41.7241 17.03 41.9375 16.92 42.1241 16.8C42.3175 16.6733 42.4741 16.5467 42.5941 16.42V12.55L39.4941 12.35V10.95H44.4941V17.03ZM49.402 19H47.502V8.45L49.402 8.25V19ZM47.442 4H49.462V6H47.442V4ZM55.398 15.24C55.398 15.68 55.4214 16.05 55.468 16.35C55.5214 16.6433 55.5947 16.8833 55.688 17.07C55.788 17.25 55.908 17.38 56.048 17.46C56.1947 17.5333 56.3614 17.57 56.548 17.57C56.6947 17.57 56.828 17.5633 56.948 17.55C57.068 17.53 57.1714 17.5067 57.258 17.48C57.358 17.4533 57.448 17.4233 57.528 17.39L58.218 18.6C58.1647 18.6533 58.078 18.7133 57.958 18.78C57.8447 18.84 57.708 18.9 57.548 18.96C57.388 19.02 57.2047 19.07 56.998 19.11C56.798 19.15 56.5814 19.17 56.348 19.17C55.748 19.17 55.2614 19.06 54.888 18.84C54.5147 18.62 54.2247 18.32 54.018 17.94C53.8114 17.56 53.6714 17.12 53.598 16.62C53.5314 16.1133 53.498 15.5733 53.498 15V9.6H51.998V8H53.498V5.91L55.348 4.8V8H58.748L58.548 9.6H55.398V15.24Z" fill="#161524"/>
<path d="M90.2648 67.9023L50.0959 27.7352C47.7842 25.4216 44.0323 25.4216 41.7178 27.7352L33.3771 36.0769L43.9574 46.658C46.4169 45.8274 49.2362 46.3845 51.196 48.3447C53.1661 50.3168 53.719 53.1603 52.8679 55.6282L63.0652 65.8257C65.5327 64.9755 68.3791 65.5251 70.3491 67.4987C73.1035 70.2519 73.1035 74.7136 70.3491 77.4679C67.5944 80.2232 63.1327 80.2232 60.377 77.4679C58.3059 75.3953 57.7937 72.3527 58.8426 69.8009L49.3323 60.2901L49.3313 85.3173C50.0032 85.6495 50.6365 86.0932 51.196 86.6506C53.9497 89.4035 53.9497 93.8646 51.196 96.6219C48.4417 99.3752 43.9781 99.3752 41.2268 96.6219C38.473 93.8646 38.473 89.4035 41.2268 86.6506C41.9075 85.9709 42.6946 85.4568 43.535 85.1123V59.8528C42.6946 59.5093 41.9084 58.9987 41.2268 58.3145C39.1409 56.23 38.6387 53.1687 39.7082 50.6071L29.2782 40.1749L1.7356 67.7165C-0.578533 70.0321 -0.578533 73.784 1.7356 76.0977L41.9045 116.265C44.2171 118.578 47.9681 118.578 50.2836 116.265L90.2648 76.284C92.5784 73.9693 92.5784 70.216 90.2648 67.9023Z" fill="#161524"/>
</svg>
