<svg width="18" height="16" viewBox="0 0 18 16" fill="none" xmlns="http://www.w3.org/2000/svg">
<path d="M3.11228 11.4006L3.14192 11.5629L3.82105 15.276C3.87172 15.5519 4.05605 15.7832 4.31261 15.8947C4.56917 16.0058 4.86508 15.982 5.10008 15.8306C6.04601 15.2205 7.28137 14.4109 7.24796 14.3635L3.11228 11.4006ZM0.692751 6.1293C0.323542 6.27105 0.0615924 6.60307 0.00931028 6.99492C-0.0424327 7.3873 0.124116 7.77591 0.443737 8.00822L3.94286 10.5544L16.3715 0.776582L5.38197 11.6027L10.1655 15.0836C10.47 15.3051 10.8624 15.3714 11.2241 15.2614C11.5852 15.1515 11.873 14.8777 12.0024 14.5241L17.1196 0.518405C17.1713 0.376105 17.1352 0.217109 17.0274 0.110927C16.9196 0.00474172 16.7606 -0.0286726 16.6188 0.0257703L0.692751 6.1293Z" fill="#F5F5F5"/>
</svg>
